<?xml version="1.0" encoding="utf-8"?>
<!-- Generator: Adobe Illustrator 27.3.1, SVG Export Plug-In . SVG Version: 6.00 Build 0)  -->
<svg version="1.1" id="Layer_1" xmlns="http://www.w3.org/2000/svg" xmlns:xlink="http://www.w3.org/1999/xlink" x="0px" y="0px"
	 viewBox="0 0 441.4 367.4" style="enable-background:new 0 0 441.4 367.4;" xml:space="preserve">
<style type="text/css">
	.st0{fill:#9B2020;}
</style>
<g>
	<g>
		<path class="st0" d="M282,117.2c-6.7-8.6-15.6-14.1-26.6-16.4c9.8-2.9,17.6-8.1,23.5-15.5c5.9-7.4,8.8-16.7,8.8-28
			c0-15.2-5.5-27.3-16.4-36.1c-11-8.9-26.1-13.3-45.5-13.3h-77.4c-4.7,0-8.4,3.8-8.4,8.4v170.1c12.4-7.3,23.9-16.4,34.2-27
			c-9.1-11.8-8.5-24.9-2.2-35.9c0,0,0,0,0,0c0-0.1,0.1-0.1,0.1-0.2c0,0,0-0.1,0.1-0.1c0,0,0,0,0,0c17.5-18.8,28.8-60.7,30.1-61.5
			c3.2,0.2-5.8,43.4-21.1,65.7c1.8,0.9,3.7,1.7,5.5,2.6c18.4-22.4,28.5-68.8,29.7-69.6c3.3,0.1-4.5,47.9-20.8,73.8
			c1.8,0.8,3.6,1.7,5.5,2.5c19.3-25.9,28.3-77,29.4-77.7c3.4,0-3.2,52.4-20.4,82c1.8,0.9,3.7,1.7,5.5,2.6
			c20.2-29.5,28-85.2,29.1-85.9c3.5-0.1-1.9,57-20,90.1c0,0,0,0,0,0c-0.1,0.1-0.1,0.3-0.2,0.4c0,0,0,0,0,0
			c-10.3,17.1-28.3,24.9-41.7,18.1c-10,12.2-21.6,23.1-34.5,32.3h80.7c19.9,0,35.5-4.7,46.6-14c11.1-9.3,16.7-22,16.7-37.9
			C292.1,135.7,288.7,125.8,282,117.2"/>
		<path class="st0" d="M170.6,225.8c-75.1-29.1-113.5-112-88.1-187.6c-0.8,2-1.7,4-2.5,6c-29.9,77.3,8.5,164.1,85.8,194.1
			c77.3,29.9,164.2-8.5,194-85.8c0.8-2.1,1.5-4.2,2.2-6.2C330.1,219.3,245.8,254.9,170.6,225.8"/>
		<path class="st0" d="M10.2,270.5c0.6-0.4,1.2-0.8,1.8-1c0.6-0.3,1.2-0.5,2-0.7c0.7-0.2,1.6-0.3,2.5-0.3c1.7,0,3.1,0.3,4.1,0.8
			c1,0.5,1.8,1.3,2.2,2.3c1.2-0.8,2.8-1.5,4.7-2.1c1.9-0.6,4.2-1,6.8-1c2.7,0,5.1,0.4,7.1,1.1c2.1,0.7,3.9,1.7,5.3,2.9
			c1.4,1.2,2.5,2.6,3.3,4.2c0.7,1.6,1.1,3.3,1.1,5c0,2.5-0.6,4.7-1.8,6.6c-1.2,1.9-2.8,3.7-4.8,5.2c1.3,0.7,2.5,1.5,3.8,2.4
			c1.2,0.9,2.3,2,3.3,3.1c1,1.2,1.7,2.4,2.3,3.7c0.6,1.3,0.9,2.6,0.9,4c0,2.3-0.5,4.3-1.5,6.1c-1,1.8-2.3,3.3-4,4.6
			c-1.7,1.2-3.7,2.2-6.1,2.9c-2.3,0.7-4.9,1-7.7,1c-2.8,0-5.2-0.3-7.2-0.8c-2-0.5-3.6-1-4.7-1.5v1.7H13.5v-46.4c0-0.9-0.3-1.6-0.9-2
			c-0.6-0.4-1.4-0.6-2.4-0.6V270.5z M31.6,298.3c-1.6,0-2.9-0.3-3.8-1c-0.9-0.6-1.4-1.5-1.4-2.7h0.1c0-1.3,0.6-2.4,1.7-3.3
			c1.2-0.8,2.6-1.3,4.3-1.3c1.2,0,2.3,0.1,3.4,0.2c1,0.2,2,0.4,2.9,0.7c0.9-1.2,1.6-2.5,2.1-4.1c0.5-1.5,0.8-3.3,0.8-5.4
			c0-2.6-0.8-4.7-2.4-6.4c-1.6-1.6-4.1-2.4-7.4-2.4c-1.8,0-3.4,0.1-4.7,0.4c-1.3,0.2-2.5,0.5-3.5,0.9c0.1,0.2,0.1,0.5,0.1,0.7v0.7
			v39.1c0.8,0.3,1.9,0.7,3.3,1c1.4,0.3,3.2,0.4,5.4,0.4c1.6,0,3.1-0.2,4.5-0.7c1.5-0.5,2.7-1.2,3.8-2.1c1.1-0.9,1.9-2,2.6-3.3
			c0.6-1.3,0.9-2.7,0.9-4.2c0-2-0.3-3.9-1-5.6c-0.7-1.7-1.7-2.9-3-3.7c-1.7,0.8-3.3,1.4-4.8,1.6C33.9,298.1,32.7,298.3,31.6,298.3"
			/>
		<path class="st0" d="M65.9,273.9c1.7,0,3.1,0.5,4.1,1.5c0.9,1,1.5,2.1,1.6,3.4c0,1-0.4,2.1-1.3,3.2c-0.9,1.1-2.3,1.6-4.1,1.6
			c-1.9,0-3.2-0.5-4.1-1.5c-0.9-1-1.4-2.1-1.4-3.3c-0.1-1,0.2-2.1,1-3.2C62.6,274.4,64,273.9,65.9,273.9 M61.1,289.9h9.7v25
			c0,1.6,0.3,2.6,1,3c0.6,0.4,1.3,0.7,2.1,0.7v1.1c-0.6,0.5-1.2,1-1.8,1.3c-0.6,0.3-1.2,0.6-1.9,0.8c-0.7,0.3-1.4,0.4-2.2,0.4
			c-0.9,0-1.8-0.1-2.6-0.4c-0.9-0.3-1.6-0.7-2.2-1.4c-0.6-0.7-1.1-1.5-1.4-2.6c-0.3-1.1-0.5-2.4-0.5-4.1V289.9z"/>
		<path class="st0" d="M88.8,320.6H78.6v-25.2c0-1.5-0.3-2.5-1-2.9c-0.7-0.4-1.5-0.7-2.3-0.7l-0.1-1.1c0.6-0.5,1.3-0.9,2-1.2
			c0.6-0.3,1.3-0.6,2.1-0.8c0.8-0.3,1.5-0.4,2.3-0.4c1.7,0,3.2,0.4,4.4,1.3c1.3,0.8,2.1,2.4,2.5,4.6c1.9-1.7,3.5-2.9,5.1-3.7
			c1.5-0.8,3.1-1.2,4.7-1.2c1.5,0,2.7,0.3,3.6,1c0.9,0.7,1.4,1.6,1.5,2.8c0.1,1.2-0.2,2.3-0.9,3.3c-0.7,1-1.9,1.5-3.7,1.5
			c-1.1,0-2-0.2-2.6-0.5c-0.6-0.3-1.1-0.8-1.4-1.2c-0.4-0.5-0.7-1.1-0.8-1.8c-0.4,0.3-0.8,0.6-1.4,1c-0.5,0.3-1,0.8-1.7,1.3
			c-0.7,0.5-1.4,1.1-2.3,1.9V320.6z"/>
		<path class="st0" d="M112,273.9c1.7,0,3.1,0.5,4.1,1.5c0.9,1,1.5,2.1,1.6,3.4c0,1-0.4,2.1-1.3,3.2c-0.9,1.1-2.3,1.6-4,1.6
			c-1.9,0-3.3-0.5-4.1-1.5c-0.9-1-1.4-2.1-1.4-3.3c-0.1-1,0.2-2.1,1-3.2C108.6,274.4,110,273.9,112,273.9 M107.1,289.9h9.7v25
			c0,1.6,0.3,2.6,1,3c0.6,0.4,1.3,0.7,2.1,0.7v1.1c-0.6,0.5-1.2,1-1.8,1.3c-0.6,0.3-1.2,0.6-1.9,0.8c-0.7,0.3-1.4,0.4-2.2,0.4
			c-0.9,0-1.8-0.1-2.7-0.4c-0.9-0.3-1.6-0.7-2.2-1.4c-0.6-0.7-1.1-1.5-1.4-2.6c-0.3-1.1-0.5-2.4-0.5-4.1V289.9z"/>
		<path class="st0" d="M165.8,329.3c-0.3-0.4-1.2-1.1-2.5-2c-1.3-0.9-3.2-1.5-5.6-1.9v11c0,1-0.1,2.2-0.4,3.6
			c-0.3,1.4-0.8,2.7-1.5,3.9c-0.8,1.2-1.8,2.3-3.2,3.2c-1.4,0.9-3.1,1.3-5.3,1.3c-2.8,0-5-0.4-6.6-1.3c-1.6-0.9-2.8-1.8-3.6-3
			c-0.8-1.1-1.3-2.2-1.5-3.3c-0.2-1.1-0.3-1.9-0.3-2.4c0-1.5,0.3-3,0.9-4.5c0.6-1.5,1.4-3,2.4-4.4c1-1.4,2.3-2.7,3.7-3.9
			c1.5-1.2,3-2.1,4.7-2.8v-8.2c-0.5,0.6-1.2,1.4-2.1,2.2c-0.8,0.8-1.9,1.7-3,2.5c-1.2,0.8-2.5,1.5-3.9,2c-1.4,0.6-2.9,0.8-4.5,0.8
			c-1.2,0-2.4-0.2-3.4-0.5c-1.1-0.3-2-0.9-2.9-1.6c-0.8-0.8-1.5-1.8-2-3c-0.5-1.2-0.7-2.8-0.7-4.7v-17.7c0-1.1-0.3-1.9-0.8-2.4
			c-0.6-0.5-1.5-0.7-2.8-0.7v-1.2c0.6-0.4,1.3-0.8,2-1.1c0.6-0.3,1.3-0.6,2.1-0.8c0.7-0.3,1.6-0.4,2.4-0.4c2.7,0,4.7,0.8,5.8,2.3
			c1.1,1.5,1.7,3.6,1.7,6.1v15.9c0,1.6,0.3,2.6,0.8,3.2c0.6,0.6,1.3,0.9,2.3,0.9c0.7,0,1.6-0.3,2.6-0.8c1-0.5,1.9-1.2,2.7-2
			c0.8-0.7,1.6-1.5,2.3-2.1l1.4-1.4v-20.3h10.5v32.2c1.6,0.3,3,0.7,4.1,1.3c1.1,0.6,2,1.2,2.7,1.8s1.2,1.2,1.5,1.8
			c0.3,0.6,0.5,1,0.5,1.4L165.8,329.3z M140.8,338.1c0,2,0.4,3.6,1.1,4.6c0.7,1,1.5,1.5,2.3,1.4c0.8,0,1.4-0.4,2.1-1.3
			c0.6-0.9,0.9-2.1,0.9-3.7v-11.7c-2.1,1.4-3.7,3.1-4.8,5.2C141.3,334.7,140.8,336.5,140.8,338.1"/>
		<path class="st0" d="M194,313.5c0,0.9,0.2,1.9,0.6,2.9c0.4,1,1.1,1.7,2.1,2c0.5,0.1,0.8,0.2,1,0.2l0.1,1.1
			c-0.3,0.3-0.7,0.7-1.2,0.9c-0.5,0.3-1.1,0.5-1.6,0.7c-0.6,0.2-1.1,0.3-1.7,0.4c-0.6,0.1-1.1,0.1-1.5,0.1c-1.4,0-2.7-0.3-4-0.9
			c-1.3-0.6-2.3-1.4-3.1-2.3c-1,1-2.2,1.8-3.6,2.5c-1.4,0.7-3.1,1-5,1c-3.8,0-6.8-0.8-8.8-2.3c-2-1.5-3-3.7-3-6.5
			c0-2.5,0.7-4.5,2.1-6c1.4-1.5,3.1-2.7,5-3.6c1.9-0.9,4-1.5,6.2-1.8c2.2-0.3,4-0.5,5.6-0.6v-3.2c0-0.7-0.1-1.4-0.4-2.1
			c-0.2-0.7-0.6-1.3-1-1.9c-0.5-0.6-1-1-1.7-1.4c-0.7-0.4-1.5-0.6-2.5-0.6c-1.4,0-2.7,0.4-3.7,1.1c-1,0.8-1.5,1.8-1.3,3.1
			c0.1,0.9-0.2,1.8-0.9,2.6c-0.7,0.8-1.6,1.2-2.9,1.2c-1,0-2-0.3-2.7-1c-0.8-0.6-1.2-1.4-1.4-2.3c-0.1-1,0.3-2.1,1-3.1
			c0.7-1,1.7-2,3-2.9c1.3-0.9,2.8-1.6,4.4-2.1c1.7-0.5,3.5-0.8,5.4-0.8c2.6,0,4.9,0.4,6.8,1.1c1.9,0.7,3.6,1.7,4.8,2.9
			c1.3,1.2,2.3,2.5,2.9,3.9c0.7,1.4,1.1,2.8,1.2,4.1c0.1,2.1,0.1,4.3,0.1,6.4C194,308.9,194,311.1,194,313.5 M178.7,317.4
			c0.8,0,1.6-0.2,2.4-0.5c0.8-0.3,1.5-0.7,2.2-1.2c-0.1-0.3-0.1-0.6-0.1-0.9c0-0.3,0-0.7,0-1v-9.3c-1.3,0.4-2.6,0.8-3.8,1.4
			c-1.2,0.6-2.2,1.3-3,2.1c-0.9,0.7-1.5,1.6-2,2.4c-0.5,0.9-0.7,1.7-0.6,2.6c0.1,1.1,0.5,2.1,1.2,3
			C175.5,317,176.8,317.4,178.7,317.4"/>
		<path class="st0" d="M201.9,320.6v-25.2c0-1.5-0.3-2.5-0.9-2.9c-0.6-0.4-1.3-0.7-2.1-0.7v-1.1c0.6-0.5,1.2-0.9,1.8-1.2
			c0.6-0.3,1.2-0.6,2-0.8c0.7-0.3,1.5-0.4,2.3-0.4c1.6,0,3,0.5,4.3,1.4c1.2,1,1.9,2.7,2.2,5.4c0.5-0.6,1.2-1.4,1.9-2.1
			c0.8-0.8,1.7-1.5,2.7-2.2c1-0.7,2.1-1.3,3.3-1.7c1.2-0.5,2.5-0.7,3.9-0.7c1.1,0,2.1,0.2,3.1,0.5c1,0.3,1.9,0.8,2.7,1.6
			c0.8,0.7,1.4,1.7,1.9,3c0.5,1.2,0.7,2.8,0.7,4.7v17.7c0,1.1,0.2,1.9,0.7,2.3c0.4,0.5,1.3,0.7,2.5,0.7v1.1
			c-0.6,0.5-1.2,0.9-1.8,1.2c-0.6,0.3-1.2,0.6-1.9,0.8c-0.7,0.2-1.4,0.3-2.2,0.3c-2.5,0-4.2-0.7-5.3-2.3c-1-1.5-1.6-3.5-1.6-6v-15.9
			c0-1.6-0.2-2.6-0.7-3.2c-0.5-0.6-1.2-0.9-2-0.9c-0.6,0-1.3,0.2-2.1,0.7c-0.7,0.4-1.4,1-2.1,1.6c-0.7,0.6-1.4,1.2-2,1.9
			c-0.6,0.7-1.1,1.2-1.5,1.7v20.7H201.9z"/>
		<path class="st0" d="M244.1,273.9c1.7,0,3.1,0.5,4,1.5c1,1,1.5,2.1,1.6,3.4c0,1-0.4,2.1-1.3,3.2c-0.9,1.1-2.3,1.6-4.1,1.6
			c-1.9,0-3.2-0.5-4.1-1.5c-0.9-1-1.4-2.1-1.4-3.3c-0.1-1,0.2-2.1,1-3.2C240.7,274.4,242.1,273.9,244.1,273.9 M239.2,289.9h9.7v25
			c0,1.6,0.3,2.6,1,3c0.6,0.4,1.3,0.7,2.1,0.7v1.1c-0.6,0.5-1.2,1-1.8,1.3c-0.6,0.3-1.2,0.6-1.9,0.8c-0.7,0.3-1.4,0.4-2.2,0.4
			c-0.9,0-1.8-0.1-2.6-0.4c-0.9-0.3-1.6-0.7-2.2-1.4c-0.6-0.7-1.1-1.5-1.4-2.6c-0.3-1.1-0.5-2.4-0.5-4.1V289.9z"/>
		<path class="st0" d="M256.3,282.9c0-1.7,0.4-3.5,1.1-5.2c0.8-1.7,1.9-3.3,3.6-4.7c1.6-1.4,3.7-2.5,6.3-3.4
			c2.6-0.9,5.7-1.3,9.3-1.3c3.3,0,6,0.4,8.2,1.1c2.2,0.7,4.1,1.6,5.4,2.7c1.4,1.1,2.4,2.2,3,3.5c0.6,1.2,0.9,2.4,0.9,3.4
			c0,0.9-0.2,1.7-0.5,2.6c-0.3,0.9-0.9,1.7-1.5,2.4c-0.7,0.8-1.5,1.4-2.4,1.8c-0.9,0.5-1.9,0.7-2.9,0.7c-1.9,0-3.4-0.6-4.7-1.7
			c-1.3-1.1-2-2.9-2-5.2c0-1,0.2-1.9,0.6-2.6c0.4-0.8,0.7-1.4,1.1-2c0.4-0.6,0.7-1.1,0.9-1.5c0.2-0.4,0.2-0.7-0.1-1
			c-0.3-0.2-0.9-0.4-1.8-0.5c-0.9-0.1-2.4-0.2-4.4-0.2c-1.6,0-3.1,0.2-4.6,0.4c-1.5,0.3-2.9,0.7-4,1.4c-1.2,0.6-2.2,1.4-2.9,2.3
			c-0.7,1-1.1,2.1-1.1,3.4c0,1.2,0.5,2.2,1.4,3.2c0.9,1,2.1,1.9,3.4,2.7c1.4,0.8,2.9,1.6,4.7,2.3c1.7,0.7,3.4,1.4,4.9,2
			c2.1,0.9,4.3,1.8,6.6,2.9c2.3,1.1,4.5,2.3,6.4,3.6c1.9,1.4,3.5,2.9,4.8,4.6c1.3,1.7,1.9,3.6,1.9,5.7c0,2.1-0.6,4.1-1.7,5.9
			c-1.1,1.8-2.7,3.3-4.8,4.6c-2,1.3-4.4,2.3-7.2,3c-2.8,0.7-5.8,1.1-9.1,1.1c-3.8,0-6.9-0.4-9.5-1.1c-2.5-0.8-4.6-1.7-6.1-3
			c-1.5-1.2-2.6-2.6-3.3-4c-0.7-1.4-1-2.9-1-4.3c0-2.7,0.8-4.8,2.4-6.3c1.6-1.5,3.5-2.3,5.6-2.3c1.6,0,3,0.3,4.1,1
			c1.1,0.7,2,1.5,2.7,2.4c0.7,0.9,1.2,1.9,1.5,2.8c0.3,1,0.5,1.7,0.5,2.2l-0.8,0.7c-0.5-0.8-1-1.5-1.7-2.2c-0.6-0.5-1.3-1-2-1.5
			c-0.8-0.5-1.7-0.7-2.7-0.7c-1.1,0-2,0.4-2.6,1.3c-0.6,0.8-0.9,1.8-0.9,2.8c0,1,0.3,2,1,3c0.6,1,1.5,1.9,2.6,2.8
			c1.1,0.8,2.4,1.5,3.8,2c1.5,0.5,3,0.7,4.7,0.7c1.8,0,3.5-0.1,5.1-0.3c1.6-0.2,3-0.6,4.2-1.1c1.2-0.5,2.2-1.2,2.9-2.1
			c0.7-0.9,1.1-2,1.1-3.3c0-1.4-0.4-2.7-1.3-3.8c-0.8-1.1-2-2.1-3.5-3c-1.5-0.9-3.3-1.9-5.3-2.8c-2.1-0.9-4.3-1.9-6.8-3.1
			c-4.7-2.2-8.2-4.5-10.5-6.8C257.4,289.1,256.3,286.3,256.3,282.9"/>
		<path class="st0" d="M321,288.3c2.5,0,4.9,0.3,7.1,1.1c2.3,0.7,4.3,1.7,6.1,3c1.8,1.3,3.3,2.8,4.4,4.7c1.1,1.8,1.7,3.9,1.9,6.1
			c0.2,3.1-0.2,5.9-1.3,8.3c-1.1,2.4-2.5,4.4-4.4,6c-1.9,1.6-4,2.8-6.3,3.6c-2.4,0.8-4.7,1.2-7.1,1.2c-2.4,0-4.7-0.4-7-1.1
			c-2.3-0.7-4.3-1.7-6.1-3.1c-1.8-1.4-3.3-3-4.4-5.1c-1.2-2-1.8-4.3-2-6.8c-0.2-2.6,0.2-4.9,1.2-7.1c0.9-2.2,2.3-4.1,4.1-5.7
			c1.8-1.6,3.8-2.8,6.2-3.7C315.8,288.8,318.3,288.3,321,288.3 M322.5,318.7c1.4,0,2.6-0.3,3.6-0.9c0.9-0.6,1.6-1.5,2.1-2.8
			c0.5-1.3,0.7-2.8,0.8-4.7c0.1-1.9,0-4.1-0.1-6.7c-0.3-3.5-1.1-6.3-2.5-8.5c-1.4-2.2-3.5-3.3-6.4-3.3c-2.6,0-4.4,1.3-5.4,3.8
			c-1,2.5-1.3,6-1,10.4c0.3,3.8,1.2,6.9,2.6,9.2C317.6,317.6,319.7,318.7,322.5,318.7"/>
		<path class="st0" d="M377.5,289.9v25.2c0,1.5,0.3,2.5,1,2.9c0.6,0.4,1.4,0.7,2.3,0.7v1.1c-0.6,0.5-1.3,0.9-2,1.2
			c-0.7,0.3-1.4,0.6-2.1,0.8c-0.8,0.3-1.6,0.4-2.4,0.4c-1.8,0-3.3-0.5-4.7-1.4c-1.3-1-2.1-2.7-2.4-5.3c-0.5,0.6-1.2,1.3-2,2.1
			c-0.8,0.8-1.8,1.5-2.8,2.2c-1.1,0.7-2.3,1.3-3.6,1.7c-1.3,0.5-2.7,0.7-4.1,0.7c-1.2,0-2.3-0.1-3.4-0.4c-1.1-0.3-2-0.8-2.8-1.5
			c-0.8-0.7-1.4-1.7-1.9-3c-0.5-1.2-0.7-2.8-0.7-4.7v-17.9c0-2-1.1-3-3.2-3v-1.1c0.6-0.4,1.2-0.8,1.8-1.1c0.6-0.3,1.2-0.6,2-0.8
			c0.7-0.3,1.5-0.4,2.3-0.4c2.7,0,4.5,0.8,5.5,2.3c1,1.5,1.5,3.5,1.5,5.9v16.1c0,1.6,0.3,2.6,0.8,3.2c0.6,0.6,1.3,0.9,2.2,0.9
			c0.7,0,1.4-0.2,2.2-0.7c0.8-0.4,1.6-0.9,2.3-1.5c0.8-0.6,1.5-1.2,2.1-1.8c0.7-0.6,1.2-1.2,1.6-1.6v-21.1H377.5z"/>
		<path class="st0" d="M381.1,273.3c0.7-0.2,1.6-0.6,2.8-1c1.2-0.5,2.5-0.7,3.9-0.7c1.3,0,2.4,0.2,3.3,0.5c0.9,0.4,1.6,0.8,2.1,1.5
			c0.5,0.6,0.9,1.4,1.1,2.3c0.2,0.9,0.3,1.9,0.3,3v15.4c0.6-0.6,1.4-1.3,2.2-2c0.8-0.7,1.7-1.3,2.7-2c0.9-0.6,1.9-1.1,3-1.5
			c1-0.4,2.1-0.6,3.1-0.6c2,0,3.7,0.5,5,1.6c1.3,1.1,2,2.5,2.1,4.1c0.1,1-0.1,1.9-0.6,2.9c-0.5,0.9-1.1,1.8-1.9,2.6
			c-0.8,0.8-1.8,1.5-2.9,2.1c-1.1,0.6-2.3,1.2-3.6,1.7c0.5,0.5,1.1,1.1,1.8,1.9c0.7,0.8,1.6,1.7,2.5,2.7c0.9,1,1.8,2,2.8,3
			c0.9,1.1,1.9,2.1,2.7,3.2c1.4,1.7,2.8,2.8,4,3.5c1.2,0.6,2.6,0.9,4.3,0.9v0.9c-0.6,0.6-1.3,1.1-2,1.5c-0.6,0.4-1.3,0.8-2.1,1
			c-0.7,0.3-1.5,0.4-2.2,0.4c-1.9,0-3.7-0.4-5.2-1.2c-1.6-0.8-3-1.8-4.3-2.9c-1.3-1.2-2.4-2.4-3.4-3.8c-1-1.4-2-2.7-2.8-3.8
			c-0.8-1.2-1.6-2.1-2.3-2.9c-0.7-0.8-1.4-1.2-2-1.2h-0.9v14.2H385v-43c0-0.9-0.3-1.6-1-2c-0.7-0.4-1.5-0.6-2.5-0.6L381.1,273.3z
			 M402.8,293c-0.5,0-1.1,0.2-1.8,0.6c-0.7,0.4-1.4,0.9-2.1,1.6c-0.7,0.6-1.5,1.3-2.2,2.1c-0.8,0.8-1.4,1.5-2,2.2v3.6l1.1-0.1
			c1.7-0.4,3.4-1.2,4.8-2.3c1.5-1.1,2.6-2.2,3.5-3.4c0.8-1.1,1.2-2.1,1.1-3C405,293.5,404.3,293,402.8,293"/>
		<polygon class="st0" points="180.4,337.7 180.4,339.3 176,339.3 176,353.6 173.9,353.6 173.9,339.3 169.6,339.3 169.6,337.7 		"/>
		<path class="st0" d="M191.7,341.4c0.8,0.4,1.4,1,1.8,1.8c0.4,0.8,0.6,1.8,0.6,2.9v7.4h-2.1v-7.1c0-1.2-0.3-2.2-0.9-2.9
			c-0.6-0.7-1.5-1-2.6-1c-1.1,0-2,0.3-2.6,1c-0.6,0.7-1,1.7-1,3v6.9h-2.1v-16.9h2.1v6.2c0.4-0.6,1-1.1,1.7-1.5
			c0.7-0.4,1.5-0.5,2.4-0.5C190.1,340.8,190.9,341,191.7,341.4"/>
		<path class="st0" d="M208.9,348.1h-10c0.1,1.2,0.5,2.2,1.3,2.9c0.8,0.7,1.7,1,2.8,1c0.9,0,1.6-0.2,2.3-0.6c0.6-0.4,1-1,1.3-1.7
			h2.2c-0.3,1.2-1,2.2-2,2.9c-1,0.7-2.3,1.1-3.7,1.1c-1.2,0-2.2-0.3-3.2-0.8c-0.9-0.5-1.7-1.3-2.2-2.3c-0.5-1-0.8-2.1-0.8-3.4
			c0-1.3,0.3-2.4,0.8-3.4c0.5-1,1.2-1.7,2.2-2.3c0.9-0.5,2-0.8,3.2-0.8c1.2,0,2.2,0.3,3.2,0.8c0.9,0.5,1.6,1.2,2.1,2.1
			c0.5,0.9,0.7,1.9,0.7,3.1C209,347.2,209,347.7,208.9,348.1 M206.3,344.4c-0.3-0.6-0.8-1-1.4-1.3c-0.6-0.3-1.3-0.5-2-0.5
			c-1,0-1.9,0.3-2.7,1c-0.7,0.7-1.2,1.6-1.3,2.8h7.9C206.8,345.6,206.7,344.9,206.3,344.4"/>
		<path class="st0" d="M227.3,350.1h-7l-1.3,3.5h-2.2l5.8-15.8h2.4l5.7,15.8h-2.2L227.3,350.1z M226.7,348.4l-2.9-8l-2.9,8H226.7z"
			/>
		<path class="st0" d="M244.4,341.1v12.5h-2.1v-1.9c-0.4,0.6-0.9,1.1-1.7,1.5c-0.7,0.4-1.5,0.5-2.3,0.5c-1,0-1.9-0.2-2.6-0.6
			c-0.8-0.4-1.4-1-1.8-1.8c-0.5-0.8-0.7-1.8-0.7-3v-7.3h2.1v7.1c0,1.2,0.3,2.2,0.9,2.8c0.6,0.7,1.5,1,2.6,1c1.1,0,2-0.3,2.6-1
			c0.6-0.7,1-1.7,1-3v-6.9H244.4z"/>
		<path class="st0" d="M250.4,342.8v7.4c0,0.6,0.1,1,0.4,1.3c0.2,0.2,0.7,0.4,1.3,0.4h1.5v1.8h-1.9c-1.2,0-2-0.3-2.6-0.8
			c-0.6-0.5-0.9-1.4-0.9-2.6v-7.4h-1.6v-1.7h1.6v-3.2h2.1v3.2h3.3v1.7H250.4z"/>
		<path class="st0" d="M265,341.4c0.8,0.4,1.4,1,1.8,1.8c0.4,0.8,0.7,1.8,0.7,2.9v7.4h-2.1v-7.1c0-1.2-0.3-2.2-0.9-2.9
			c-0.6-0.7-1.5-1-2.6-1c-1.1,0-2,0.3-2.6,1c-0.6,0.7-1,1.7-1,3v6.9h-2.1v-16.9h2.1v6.2c0.4-0.6,1-1.1,1.7-1.5
			c0.7-0.4,1.5-0.5,2.4-0.5C263.4,340.8,264.2,341,265,341.4"/>
		<path class="st0" d="M282.2,348.1h-10c0.1,1.2,0.5,2.2,1.3,2.9c0.8,0.7,1.7,1,2.8,1c0.9,0,1.6-0.2,2.3-0.6c0.6-0.4,1-1,1.3-1.7
			h2.2c-0.3,1.2-1,2.2-2,2.9c-1,0.7-2.3,1.1-3.7,1.1c-1.2,0-2.2-0.3-3.2-0.8c-0.9-0.5-1.7-1.3-2.2-2.3c-0.5-1-0.8-2.1-0.8-3.4
			c0-1.3,0.3-2.4,0.8-3.4c0.5-1,1.2-1.7,2.2-2.3c0.9-0.5,2-0.8,3.2-0.8c1.2,0,2.2,0.3,3.2,0.8c0.9,0.5,1.6,1.2,2.1,2.1
			c0.5,0.9,0.7,1.9,0.7,3.1C282.3,347.2,282.2,347.7,282.2,348.1 M279.6,344.4c-0.3-0.6-0.8-1-1.4-1.3c-0.6-0.3-1.3-0.5-2-0.5
			c-1,0-1.9,0.3-2.7,1c-0.7,0.7-1.2,1.6-1.3,2.8h7.9C280.1,345.6,279.9,344.9,279.6,344.4"/>
		<path class="st0" d="M294.8,342.2c0.9,0.9,1.4,2.3,1.4,4v7.4h-2.1v-7.1c0-1.2-0.3-2.2-0.9-2.9c-0.6-0.7-1.5-1-2.6-1
			c-1.1,0-2,0.3-2.6,1c-0.7,0.7-1,1.7-1,3v6.9H285v-12.5h2.1v1.8c0.4-0.6,1-1.1,1.7-1.5c0.7-0.3,1.5-0.5,2.3-0.5
			C292.6,340.8,293.9,341.3,294.8,342.2"/>
		<path class="st0" d="M302.2,342.8v7.4c0,0.6,0.1,1,0.4,1.3c0.2,0.2,0.7,0.4,1.3,0.4h1.5v1.8h-1.9c-1.2,0-2-0.3-2.6-0.8
			c-0.6-0.5-0.9-1.4-0.9-2.6v-7.4h-1.6v-1.7h1.6v-3.2h2.1v3.2h3.3v1.7H302.2z"/>
		<path class="st0" d="M308,338.6c-0.3-0.3-0.4-0.6-0.4-1c0-0.4,0.1-0.7,0.4-1c0.3-0.3,0.6-0.4,1-0.4c0.4,0,0.7,0.1,1,0.4
			c0.3,0.3,0.4,0.6,0.4,1c0,0.4-0.1,0.7-0.4,1c-0.3,0.3-0.6,0.4-1,0.4C308.6,339,308.3,338.9,308,338.6 M310,353.6h-2.1v-12.5h2.1
			V353.6z"/>
		<path class="st0" d="M313.6,343.9c0.5-1,1.2-1.7,2.2-2.3c0.9-0.5,2-0.8,3.2-0.8c1.5,0,2.8,0.4,3.8,1.1c1,0.7,1.6,1.8,2,3.1h-2.2
			c-0.2-0.8-0.6-1.4-1.2-1.8c-0.6-0.4-1.4-0.7-2.3-0.7c-1.2,0-2.2,0.4-2.9,1.2c-0.7,0.8-1.1,2-1.1,3.5c0,1.5,0.4,2.7,1.1,3.5
			c0.7,0.8,1.7,1.2,2.9,1.2c0.9,0,1.7-0.2,2.3-0.6c0.6-0.4,1-1,1.3-1.8h2.2c-0.3,1.3-1,2.3-2,3.1c-1,0.8-2.3,1.2-3.8,1.2
			c-1.2,0-2.2-0.3-3.2-0.8c-0.9-0.5-1.6-1.3-2.2-2.3c-0.5-1-0.8-2.1-0.8-3.4C312.8,346,313.1,344.9,313.6,343.9"/>
		<path class="st0" d="M343.1,346.1c0.5,0.4,0.9,0.9,1.2,1.4c0.3,0.6,0.4,1.2,0.4,1.8c0,0.8-0.2,1.5-0.6,2.2c-0.4,0.6-1,1.2-1.8,1.5
			c-0.8,0.4-1.7,0.6-2.8,0.6h-5.9v-15.9h5.7c1.1,0,2,0.2,2.8,0.5c0.8,0.4,1.3,0.8,1.7,1.4c0.4,0.6,0.6,1.3,0.6,2.1
			c0,0.9-0.2,1.7-0.8,2.3c-0.5,0.6-1.2,1.1-2,1.3C342.1,345.5,342.6,345.7,343.1,346.1 M335.6,344.5h3.5c1,0,1.7-0.2,2.3-0.7
			c0.5-0.5,0.8-1.1,0.8-1.9c0-0.8-0.3-1.4-0.8-1.9c-0.5-0.5-1.3-0.7-2.3-0.7h-3.5V344.5z M341.7,351.1c0.6-0.5,0.9-1.2,0.9-2
			c0-0.9-0.3-1.6-0.9-2.1c-0.6-0.5-1.4-0.8-2.4-0.8h-3.6v5.6h3.7C340.3,351.9,341.2,351.6,341.7,351.1"/>
		<path class="st0" d="M347.6,338.6c-0.3-0.3-0.4-0.6-0.4-1c0-0.4,0.1-0.7,0.4-1c0.3-0.3,0.6-0.4,1-0.4c0.4,0,0.7,0.1,1,0.4
			c0.3,0.3,0.4,0.6,0.4,1c0,0.4-0.1,0.7-0.4,1c-0.3,0.3-0.6,0.4-1,0.4C348.2,339,347.9,338.9,347.6,338.6 M349.6,353.6h-2.1v-12.5
			h2.1V353.6z"/>
		<path class="st0" d="M356.8,341.4c0.7-0.4,1.5-0.6,2.5-0.6v2.1h-0.6c-2.3,0-3.5,1.3-3.5,3.8v6.8h-2.1v-12.5h2.1v2
			C355.6,342.4,356.2,341.8,356.8,341.4"/>
		<path class="st0" d="M361.8,338.6c-0.3-0.3-0.4-0.6-0.4-1c0-0.4,0.1-0.7,0.4-1c0.3-0.3,0.6-0.4,1-0.4c0.4,0,0.7,0.1,1,0.4
			c0.3,0.3,0.4,0.6,0.4,1c0,0.4-0.1,0.7-0.4,1c-0.3,0.3-0.6,0.4-1,0.4C362.4,339,362.1,338.9,361.8,338.6 M363.8,353.6h-2.1v-12.5
			h2.1V353.6z"/>
		<polygon class="st0" points="378.1,341.1 370.6,359.5 368.4,359.5 370.9,353.5 365.9,341.1 368.2,341.1 372.1,351.2 376,341.1 		
			"/>
		<path class="st0" d="M380.2,343.9c0.5-1,1.2-1.7,2.1-2.3c0.9-0.5,1.9-0.8,3-0.8c1.1,0,2.1,0.2,2.9,0.7c0.8,0.5,1.4,1.1,1.8,1.8
			v-2.3h2.1v12.5H390v-2.3c-0.4,0.7-1,1.3-1.8,1.8c-0.8,0.5-1.8,0.7-2.8,0.7c-1.1,0-2.1-0.3-3-0.8c-0.9-0.5-1.6-1.3-2.1-2.3
			c-0.5-1-0.8-2.1-0.8-3.4C379.4,346,379.7,344.9,380.2,343.9 M389.5,344.8c-0.4-0.7-0.9-1.2-1.5-1.6c-0.6-0.4-1.4-0.6-2.1-0.6
			c-0.8,0-1.5,0.2-2.1,0.6c-0.6,0.4-1.1,0.9-1.5,1.6c-0.4,0.7-0.6,1.5-0.6,2.5c0,1,0.2,1.8,0.6,2.5c0.4,0.7,0.9,1.2,1.5,1.6
			c0.6,0.4,1.4,0.6,2.1,0.6c0.8,0,1.5-0.2,2.1-0.6c0.6-0.4,1.2-0.9,1.5-1.6c0.4-0.7,0.6-1.5,0.6-2.5
			C390,346.4,389.8,345.5,389.5,344.8"/>
		<path class="st0" d="M405.5,342.2c0.9,0.9,1.4,2.3,1.4,4v7.4h-2.1v-7.1c0-1.2-0.3-2.2-0.9-2.9c-0.6-0.7-1.5-1-2.6-1
			c-1.1,0-2,0.3-2.6,1c-0.7,0.7-1,1.7-1,3v6.9h-2.1v-12.5h2.1v1.8c0.4-0.6,1-1.1,1.7-1.5c0.7-0.3,1.5-0.5,2.3-0.5
			C403.3,340.8,404.5,341.3,405.5,342.2"/>
		<path class="st0" d="M410.4,338.6c-0.3-0.3-0.4-0.6-0.4-1c0-0.4,0.1-0.7,0.4-1c0.3-0.3,0.6-0.4,1-0.4c0.4,0,0.7,0.1,1,0.4
			c0.3,0.3,0.4,0.6,0.4,1c0,0.4-0.1,0.7-0.4,1c-0.3,0.3-0.6,0.4-1,0.4C411,339,410.6,338.9,410.4,338.6 M412.4,353.6h-2.1v-12.5h2.1
			V353.6z"/>
		<path class="st0" d="M421.6,256.9c5.3,0,9.6,4.3,9.6,9.6c0,5.3-4.3,9.6-9.6,9.6c-5.3,0-9.6-4.3-9.6-9.6
			C412,261.2,416.3,256.9,421.6,256.9 M421.6,274.7c4.4,0,8.1-3.6,8.2-8c0.1-4.8-3.8-8.4-8.1-8.4c-4.6,0-8.2,3.6-8.2,8.3
			C413.5,271.1,417.2,274.7,421.6,274.7"/>
		<path class="st0" d="M426.3,271.4c-0.7,0-1.3,0-1.9,0c-0.1,0-0.3-0.1-0.3-0.2c-0.7-1-1.4-1.9-2-2.9c-0.1-0.1-0.2-0.2-0.4-0.2
			c-0.6,0-1.3,0-1.9,0v3.3h-1.6v-9.7c0.1,0,0.2,0,0.2,0c1.3,0,2.6,0,3.9,0c0.6,0,1.3,0.1,1.9,0.3c1,0.3,1.6,1.1,1.7,2.1
			c0.1,0.9,0.1,1.7-0.4,2.5c-0.3,0.6-0.8,0.9-1.4,1.1c-0.1,0-0.2,0.1-0.3,0.1C424.6,269.1,425.5,270.2,426.3,271.4 M419.7,266.7
			c1.1-0.1,2.1-0.1,3.2-0.2c0.8-0.1,1.1-0.5,1.3-1.3c0-0.2,0-0.4,0-0.6c0-0.8-0.4-1.3-1.2-1.4c-1-0.1-2.1-0.1-3.2-0.1c0,0,0,0-0.1,0
			V266.7z"/>
	</g>
</g>
<path class="st0" d="M532.4-202.8c-1.2,1.9-1.8,3.9-1.8,5.8c0,2.2,0.8,4.2,2.4,5.9c0.9,1,2,1.8,3.3,2.4c1.3,0.6,2.8,0.8,4.4,0.8
	c1.6,0,3-0.3,4.2-0.9c2.5-1.2,3.7-3.2,3.7-6c0-1-0.4-2.1-1-3.3c-0.7-1.2-1.7-2.2-3.1-3.1l-7.6-5.1c-2.9-1.8-4.4-4.2-4.4-7.1
	c0-0.3,0-0.6,0-0.9c0.2-2.3,1.1-4.2,2.7-5.6c1.7-1.4,3.9-2.2,6.6-2.2c1.7,0,3.7,0.1,6.2,0.4h2.8l-0.6,6.6h-0.4
	c0-1.5-0.6-2.8-1.8-3.7c-1.2-0.9-2.7-1.4-4.6-1.4c-2.3,0-4,0.7-5,2.1c-0.5,0.7-0.8,1.5-0.8,2.3c0,0.8,0.3,1.5,0.8,2.1
	c0.5,0.6,1.3,1.2,2.4,1.9l8.3,5.4c1.7,1.1,3,2.4,4,3.9c1.1,1.8,1.7,3.6,1.7,5.4c0,1.2-0.2,2.4-0.7,3.8c-0.5,1.3-1.3,2.6-2.4,3.7
	c-1.1,1.1-2.6,2.1-4.3,2.8c-1.8,0.7-3.7,1.1-5.8,1.1s-4.1-0.4-5.8-1.1c-3.2-1.3-5.2-3.7-6.1-7c-0.2-0.7-0.3-1.5-0.3-2.2
	c0-2.5,0.9-4.9,2.6-7.1L532.4-202.8z"/>
<path class="st0" d="M581.4-208.5c-1,2.3-2.9,3.9-5.6,4.8c-0.8,0.3-1.5,0.4-2.2,0.4c-2.1,0-4-0.6-5.7-1.7v-0.4
	c2.2,0.1,4-0.7,5.4-2.2c1.2-1.3,1.8-3,1.8-5.1c0-3.2-1.1-5.3-3.4-6.3c-0.7-0.3-1.5-0.4-2.4-0.4h-3v26.1c0,0.8,0.3,1.4,0.8,2
	c0.6,0.6,1.2,0.8,2,0.8h0.6v0.4h-13.6v-0.4h0.6c0.8,0,1.4-0.3,2-0.8c0.6-0.6,0.8-1.2,0.9-2v-24.9c-0.1-1-0.6-1.8-1.5-2.2
	c-0.4-0.2-0.9-0.4-1.3-0.4h-0.6v-0.4h14.9c5.4,0,8.8,1.7,10.3,5.1c0.5,1.1,0.7,2.4,0.7,3.8C582.2-211.1,581.9-209.7,581.4-208.5"/>
<path class="st0" d="M584-190.5c0.8,0,1.4-0.3,2-0.8c0.5-0.6,0.8-1.2,0.9-2v-24.8c0-0.8-0.3-1.4-0.9-2c-0.6-0.5-1.2-0.8-2-0.8h-0.6
	v-0.4H597l0,0.4h-0.5c-0.8,0-1.4,0.3-2,0.8c-0.6,0.5-0.8,1.2-0.8,2v24.8c0,0.8,0.3,1.4,0.8,2c0.6,0.6,1.2,0.8,2,0.8h0.5l0,0.4h-13.6
	v-0.4H584z"/>
<path class="st0" d="M616.4-189.5c-5.7,0-10.2-1.5-13.5-4.4c-3.3-2.9-4.9-6.8-4.9-11.9c0-5,1.6-9,4.9-11.9c3.2-2.9,7.7-4.4,13.3-4.4
	c4.3,0,8,0.8,11.1,2.4l0.1,7.7H627c-1.5-5.5-5-8.2-10.4-8.2c-3.5,0-6.3,1.3-8.3,3.8c-2,2.5-3.1,6-3.1,10.4c0,4.4,1,7.9,2.9,10.5
	c1.9,2.6,4.6,3.9,7.9,4c3.5,0,6.1-0.9,7.9-2.6c1.8-1.8,3.1-4.8,3.8-9.2h0.4l0.4,7.7C626.2-191.5,622.2-189.5,616.4-189.5"/>
<path class="st0" d="M631.3-190.5c0.8,0,1.4-0.3,2-0.8c0.5-0.6,0.8-1.2,0.9-2v-24.9c-0.1-1-0.6-1.8-1.5-2.3
	c-0.4-0.2-0.9-0.4-1.4-0.4h-0.6v-0.4h17.1c0.9,0,1.9-0.1,3-0.3c1.1-0.2,1.9-0.4,2.3-0.5v7.8h-0.4v-0.5c0-1.3-0.4-2.4-1.2-3.2
	c-0.8-0.8-1.9-1.3-3.2-1.3h-7.5v13h5.9c1.1,0,2-0.4,2.7-1.1c0.7-0.7,1.1-1.6,1.1-2.7v-0.4h0.4v10.3h-0.4v-0.4c0-1.5-0.6-2.6-1.8-3.3
	c-0.6-0.3-1.2-0.5-2-0.5h-5.9v12.5h5.8c2.2,0,4-0.6,5.5-1.9c1.5-1.2,2.6-3,3.3-5.3h0.4l-2.1,9.1h-23.1v-0.4H631.3z"/>
<path class="st0" d="M561.9-144.5c-2.3,1.2-4.8,1.7-7.4,1.7c-2.3,0-4.4-0.4-6.3-1.1c-4.1-1.5-7.6-4.5-10.5-8.9
	c-0.7-1.1-2.1-3.1-4.2-6.2c-2-3-3.3-5-3.9-5.8c-1-1.6-1.9-2.5-2.5-2.7v-0.4h0.1h0.2h0.2h0.2h0.2c1.5,0,2.9-0.3,4.2-1
	c1.9-1.1,2.9-3,2.9-5.9c0-2.1-0.6-3.7-1.8-4.9c-1.2-1.1-2.6-1.7-4.3-1.7h-3.4v26c0,0.8,0.3,1.4,0.8,2c0.6,0.6,1.2,0.8,2,0.8h0.6v0.4
	h-13.6v-0.4h0.6c0.7,0,1.4-0.3,2-0.8c0.6-0.5,0.9-1.2,0.9-2v-24.8c0-0.8-0.3-1.4-0.9-2c-0.6-0.6-1.2-0.8-2-0.8h-0.6v-0.4h15.3
	c3.8,0,6.8,0.9,8.9,2.6c1.7,1.4,2.5,3.3,2.5,5.8c0,2.5-0.8,4.5-2.4,6.1c-1.6,1.6-3.5,2.3-5.6,2.3c-0.2,0-0.4,0-0.6,0
	c1.2,0.7,2.2,1.4,3.1,2.2c0.8,0.8,1.5,1.6,2.1,2.3c0.6,0.7,1.1,1.3,1.6,1.9c0.4,0.6,1,1.3,1.7,2.2c0.7,0.9,1.5,1.9,2.2,2.8
	c0.8,1,1.6,2,2.6,3c0.9,1,2,2,3.1,2.9c1.1,0.9,2.3,1.7,3.5,2.3c2.5,1.3,5.3,1.9,8.3,2V-144.5z"/>
<path class="st0" d="M563.6-184c5.5,0,9.9,1.5,13.1,4.4c3.2,2.9,4.9,6.9,4.9,11.9c0,5-1.6,9-4.9,11.9c-3.2,2.9-7.6,4.4-13.1,4.4
	c-5.5,0-9.9-1.5-13.1-4.4c-3.2-2.9-4.9-6.9-4.9-11.9c0-3.3,0.7-6.2,2.2-8.6c1.5-2.5,3.6-4.3,6.3-5.6C556.8-183.3,560-184,563.6-184
	 M555.8-157.2c1.9,2.6,4.5,3.9,7.8,3.9c3.3,0,5.9-1.3,7.8-3.9c1.9-2.6,2.9-6.1,2.9-10.5c0-2.9-0.4-5.5-1.3-7.6
	c-0.9-2.2-2.1-3.8-3.7-5c-1.6-1.2-3.5-1.7-5.7-1.7c-3.3,0-5.9,1.3-7.8,3.9c-1.9,2.6-2.9,6.1-2.9,10.5
	C553-163.3,553.9-159.8,555.8-157.2"/>
<path class="st0" d="M616-182.9h-0.8c-0.6,0-1.2,0.2-1.6,0.6c-0.5,0.4-0.7,0.9-0.7,1.5v17.4c0,3.7-1.1,6.6-3.4,8.7
	c-2.3,2.1-5.4,3.2-9.4,3.2c-4.7,0-8.3-1.1-10.8-3.1c-2.5-2.1-3.7-5-3.7-8.7v-17.3c0-0.7-0.2-1.2-0.7-1.6c-0.5-0.4-1-0.6-1.7-0.6
	h-0.7v-0.4h12.9v0.4h-0.7c-0.7,0-1.2,0.2-1.7,0.6c-0.4,0.4-0.7,0.9-0.7,1.5v17c0,3.2,0.8,5.7,2.3,7.5c1.5,1.8,3.7,2.8,6.4,2.8
	c2.7,0,4.9-0.9,6.4-2.6c1.6-1.7,2.4-4.1,2.4-7.1v-17.6c0-0.6-0.2-1.1-0.7-1.5c-0.5-0.4-1-0.6-1.7-0.6h-0.7v-0.4h9.3V-182.9z"/>
<path class="st0" d="M633.9-181.5v26.2c0,0.8,0.3,1.4,0.9,2c0.6,0.5,1.2,0.8,2,0.8h0.5l0,0.4h-13.6v-0.4h0.6c0.7,0,1.4-0.3,1.9-0.8
	c0.5-0.5,0.9-1.2,0.9-1.9v-26.2h-6c-1.4,0-2.5,0.5-3.3,1.3c-0.8,0.8-1.2,1.9-1.2,3.3v0.5h-0.4v-7.8c0.4,0.2,1.2,0.4,2.3,0.5
	c1.1,0.2,2.1,0.3,3,0.3h18c1.5,0,2.6-0.1,3.6-0.4c0.9-0.2,1.5-0.4,1.7-0.4v7.8h-0.4v-0.5c0-1.3-0.4-2.4-1.2-3.3
	c-0.8-0.8-1.9-1.3-3.3-1.3H633.9z"/>
<path class="st0" d="M646-152.6c0.8,0,1.4-0.3,2-0.8c0.5-0.6,0.8-1.2,0.9-2v-24.9c-0.1-1-0.6-1.8-1.5-2.3c-0.4-0.2-0.9-0.4-1.4-0.4
	h-0.6v-0.4h17.1c0.9,0,1.9-0.1,3-0.3c1.1-0.2,1.9-0.4,2.3-0.5v7.8h-0.4v-0.5c0-1.3-0.4-2.4-1.2-3.2c-0.8-0.8-1.9-1.3-3.2-1.3h-7.5
	v13h5.9c1.1,0,2-0.4,2.7-1.1c0.7-0.7,1.1-1.6,1.1-2.7v-0.4h0.4v10.3h-0.4v-0.4c0-1.5-0.6-2.6-1.8-3.3c-0.6-0.3-1.2-0.5-2-0.5h-5.9
	v12.5h5.8c2.2,0,4-0.6,5.5-1.9c1.5-1.2,2.6-3,3.3-5.3h0.4l-2.1,9.1h-23.1v-0.4H646z"/>
<path class="st0" d="M566.3-146.1v1.5h0.7c0.1,0,0.2,0,0.3-0.1s0.1-0.2,0.1-0.3v0h0.1v1.2h-0.1v0c0-0.1,0-0.2-0.1-0.3
	c-0.1-0.1-0.2-0.1-0.3-0.1h-0.7v1.3c0,0.1,0.1,0.2,0.2,0.3c0.1,0,0.1,0,0.2,0h0.1l0,0.1h-1.6v-0.1h0.1c0.1,0,0.2,0,0.2-0.1
	s0.1-0.1,0.1-0.2v-2.9c0-0.1,0-0.2-0.1-0.2c-0.1-0.1-0.1-0.1-0.2-0.1h-0.1v-0.1h2c0.2,0,0.3,0,0.4,0c0.1,0,0.2,0,0.2-0.1v0.9h-0.1
	v-0.1c0-0.2,0-0.3-0.1-0.4c-0.1-0.1-0.2-0.1-0.4-0.1H566.3z"/>
<path class="st0" d="M572.2-146.1H572h0v3c0,0.1,0.1,0.2,0.2,0.3c0.1,0,0.1,0,0.2,0h0.1v0.1h-1.6v-0.1h0.1c0.1,0,0.2-0.1,0.3-0.2
	c0,0,0-0.1,0-0.2v-2.9c0-0.1,0-0.2-0.1-0.2c-0.1-0.1-0.1-0.1-0.2-0.1h-0.1v-0.1h1.8c0.3,0,0.6,0.1,0.8,0.2c0.1,0.1,0.2,0.2,0.3,0.3
	c0.1,0.1,0.1,0.3,0.1,0.4c0,0.2,0,0.3-0.1,0.4c-0.1,0.1-0.2,0.3-0.3,0.4c-0.1,0.1-0.3,0.2-0.5,0.2c0.2,0.1,0.4,0.2,0.5,0.5
	c0.4,0.6,0.6,0.9,0.8,1.1c0.1,0.1,0.2,0.1,0.3,0.1v0.1h-0.5c-0.3,0-0.5,0-0.7-0.1c-0.2-0.1-0.4-0.2-0.5-0.4
	c-0.1-0.1-0.1-0.3-0.2-0.4c-0.1-0.2-0.2-0.3-0.2-0.4c-0.1-0.2-0.2-0.3-0.3-0.3v-0.1h0.2c0.2,0,0.3,0,0.4-0.1
	c0.1-0.1,0.2-0.2,0.2-0.5c0-0.1,0-0.1,0-0.2c0-0.3-0.1-0.5-0.2-0.6c-0.1-0.1-0.3-0.2-0.4-0.2H572.2z"/>
<path class="st0" d="M579.2-146.4c0.6,0,1.1,0.2,1.5,0.5c0.4,0.3,0.6,0.8,0.6,1.4s-0.2,1-0.6,1.4c-0.4,0.3-0.9,0.5-1.5,0.5
	c-0.6,0-1.1-0.2-1.5-0.5c-0.4-0.3-0.6-0.8-0.6-1.4c0-0.4,0.1-0.7,0.3-1c0.2-0.3,0.4-0.5,0.7-0.7
	C578.4-146.3,578.8-146.4,579.2-146.4 M578.3-143.3c0.2,0.3,0.5,0.4,0.9,0.4s0.7-0.1,0.9-0.4c0.2-0.3,0.3-0.7,0.3-1.2
	c0-0.3-0.1-0.6-0.1-0.9c-0.1-0.2-0.2-0.4-0.4-0.6c-0.2-0.1-0.4-0.2-0.7-0.2c-0.4,0-0.7,0.1-0.9,0.4c-0.2,0.3-0.3,0.7-0.3,1.2
	S578.1-143.6,578.3-143.3"/>
<path class="st0" d="M589-142.8L589-142.8L589-142.8l-1.5,0.1v0h0.1c0.1,0,0.1,0,0.1-0.1c0,0,0.1-0.1,0.1-0.2l-0.2-1.9l-1,1.7
	c-0.1,0.2-0.2,0.4-0.2,0.6h-0.1l-1.3-2.2l-0.2,1.8c0,0.1,0,0.1,0.1,0.2c0,0,0.1,0.1,0.1,0.1h0.1v0H584v-0.1h0.1c0.1,0,0.2,0,0.2-0.1
	c0.1-0.1,0.1-0.1,0.1-0.2l0.4-3.3h0l1.6,2.6l1.5-2.6h0l0.4,3.3c0,0.1,0.1,0.2,0.1,0.2C588.8-142.8,588.9-142.8,589-142.8"/>
<path class="st0" d="M598.5-145.5c0,0.2,0,0.3-0.1,0.4c-0.1,0.1-0.2,0.2-0.3,0.3c0.4,0,0.7,0.2,0.9,0.5c0.1,0.1,0.1,0.3,0.1,0.5
	s-0.1,0.4-0.2,0.6c-0.2,0.2-0.4,0.3-0.6,0.4c-0.3,0.1-0.5,0.1-0.8,0.1c-0.7,0-1.2-0.2-1.5-0.6c-0.2-0.2-0.3-0.6-0.3-1
	c0-0.1,0-0.1,0-0.2l0.1,0c0,0.6,0.2,1,0.6,1.3v-2.8c0-0.1-0.1-0.2-0.2-0.3c-0.1,0-0.1,0-0.2,0h-0.1v-0.1h1.3c0.4,0,0.7,0.1,1,0.2
	C598.4-146,598.5-145.7,598.5-145.5 M597.2-142.9c0.3,0,0.6-0.1,0.7-0.3c0.2-0.2,0.3-0.4,0.3-0.7c0-0.2,0-0.3-0.1-0.4
	c-0.1-0.1-0.1-0.2-0.2-0.3c-0.2-0.1-0.4-0.2-0.6-0.2v0c0.1,0,0.2,0,0.3-0.1c0.1-0.1,0.2-0.3,0.2-0.6c0-0.2-0.1-0.4-0.2-0.5
	c-0.1-0.1-0.3-0.2-0.5-0.2v3.2C597.1-142.9,597.1-142.9,597.2-142.9"/>
<path class="st0" d="M602.1-142.8c0.1,0,0.2,0,0.2-0.1c0.1-0.1,0.1-0.1,0.1-0.2v-2.9c0-0.1,0-0.2-0.1-0.2c-0.1-0.1-0.1-0.1-0.2-0.1
	H602v-0.1h1.6l0,0.1h-0.1c-0.1,0-0.2,0-0.2,0.1c-0.1,0.1-0.1,0.1-0.1,0.2v2.9c0,0.1,0,0.2,0.1,0.2c0.1,0.1,0.1,0.1,0.2,0.1h0.1
	l0,0.1L602.1-142.8L602.1-142.8L602.1-142.8z"/>
<path class="st0" d="M608.1-146.1h-0.2h0v3c0,0.1,0.1,0.2,0.2,0.3c0.1,0,0.1,0,0.2,0h0.1v0.1h-1.6v-0.1h0.1c0.1,0,0.2-0.1,0.3-0.2
	c0,0,0-0.1,0-0.2v-2.9c0-0.1,0-0.2-0.1-0.2c-0.1-0.1-0.1-0.1-0.2-0.1h-0.1v-0.1h1.8c0.3,0,0.6,0.1,0.8,0.2c0.1,0.1,0.2,0.2,0.3,0.3
	c0.1,0.1,0.1,0.3,0.1,0.4c0,0.2,0,0.3-0.1,0.4c-0.1,0.1-0.2,0.3-0.3,0.4c-0.1,0.1-0.3,0.2-0.5,0.2c0.2,0.1,0.4,0.2,0.5,0.5
	c0.4,0.6,0.6,0.9,0.8,1.1c0.1,0.1,0.2,0.1,0.3,0.1v0.1H610c-0.3,0-0.5,0-0.7-0.1c-0.2-0.1-0.4-0.2-0.5-0.4c-0.1-0.1-0.1-0.3-0.2-0.4
	c-0.1-0.2-0.2-0.3-0.2-0.4c-0.1-0.2-0.2-0.3-0.3-0.3v-0.1h0.2c0.2,0,0.3,0,0.4-0.1c0.1-0.1,0.2-0.2,0.2-0.5c0-0.1,0-0.1,0-0.2
	c0-0.3-0.1-0.5-0.2-0.6c-0.1-0.1-0.3-0.2-0.4-0.2H608.1z"/>
<path class="st0" d="M613.2-142.8c0.1,0,0.2,0,0.2-0.1c0.1-0.1,0.1-0.1,0.1-0.2v-2.9c0-0.1,0-0.2-0.1-0.2c-0.1-0.1-0.1-0.1-0.2-0.1
	h-0.1v-0.1h1.6l0,0.1h-0.1c-0.1,0-0.2,0-0.2,0.1c-0.1,0.1-0.1,0.1-0.1,0.2v2.9c0,0.1,0,0.2,0.1,0.2c0.1,0.1,0.1,0.1,0.2,0.1h0.1
	l0,0.1L613.2-142.8L613.2-142.8L613.2-142.8z"/>
<path class="st0" d="M621.3-146.3L621.3-146.3c-0.2,0-0.3,0-0.4,0.1c-0.1,0.1-0.2,0.1-0.2,0.2l-1,1.6v1.3c0,0.1,0,0.2,0.1,0.2
	c0.1,0.1,0.1,0.1,0.2,0.1h0.1l0,0.1h-1.6v-0.1h0.1c0.1,0,0.2,0,0.2-0.1c0.1-0.1,0.1-0.1,0.1-0.2v-1.3l-1-1.6
	c-0.1-0.1-0.1-0.2-0.2-0.2c-0.1-0.1-0.2-0.1-0.3-0.1h-0.1v-0.1h1.7v0.1H619c-0.1,0-0.1,0-0.2,0.1c0,0,0,0.1,0,0.1c0,0,0,0.1,0,0.1
	l0.7,1.3l0.8-1.3c0,0,0-0.1,0-0.1c0,0,0-0.1,0-0.1c0-0.1-0.1-0.1-0.2-0.1h-0.1v-0.1L621.3-146.3L621.3-146.3z"/>
<path class="st0" d="M627.1-142.8L627.1-142.8L627.1-142.8l-1.6,0.1v-0.1h0c0.1,0,0.1,0,0.2-0.1c0,0,0.1-0.1,0.1-0.1
	c0,0,0-0.1,0-0.1l-0.3-0.6h-1.2l-0.3,0.6c0,0,0,0.1,0,0.1c0,0,0,0.1,0.1,0.1c0,0,0.1,0.1,0.2,0.1h0v0.1h-1.1v-0.1h0
	c0.1,0,0.2,0,0.2-0.1c0.1,0,0.1-0.1,0.2-0.2l1.2-2.7c0.2-0.3,0.2-0.6,0.3-0.7h0l1.5,3.3c0.1,0.1,0.1,0.2,0.2,0.2
	C626.9-142.8,627-142.8,627.1-142.8 M624.4-144h1l-0.5-1.3L624.4-144z"/>
<path class="st0" d="M633.8-146.3c-0.1,0-0.2,0-0.2,0.1c-0.1,0.1-0.1,0.1-0.1,0.2v2.7c0,0.2,0,0.4,0,0.6l0,0.1h0l-2.6-2.5v2
	c0,0.1,0,0.2,0.1,0.2c0.1,0.1,0.1,0.1,0.2,0.1h0.1v0.1h-1.6v-0.1h0.1c0.1,0,0.2,0,0.2-0.1c0.1-0.1,0.1-0.1,0.1-0.2v-2.7
	c0-0.2,0-0.4,0-0.6l0-0.1h0l2.6,2.5v-2c0-0.1,0-0.2-0.1-0.2c-0.1-0.1-0.1-0.1-0.2-0.1h-0.1v-0.1L633.8-146.3L633.8-146.3
	L633.8-146.3z"/>
<path class="st0" d="M636.9-142.8c0.1,0,0.2,0,0.2-0.1c0.1-0.1,0.1-0.1,0.1-0.2v-2.9c0-0.1,0-0.2-0.1-0.2c-0.1-0.1-0.1-0.1-0.2-0.1
	h-0.1v-0.1h1.6l0,0.1h-0.1c-0.1,0-0.2,0-0.2,0.1c-0.1,0.1-0.1,0.1-0.1,0.2v2.9c0,0.1,0,0.2,0.1,0.2c0.1,0.1,0.1,0.1,0.2,0.1h0.1
	l0,0.1L636.9-142.8L636.9-142.8L636.9-142.8z"/>
<path class="st0" d="M645.7-144.2c-0.1,0.2-0.2,0.4-0.2,0.7c0,0.3,0.1,0.5,0.3,0.7c0.1,0.1,0.2,0.2,0.4,0.3c0.2,0.1,0.3,0.1,0.5,0.1
	c0.2,0,0.3,0,0.5-0.1c0.3-0.1,0.4-0.4,0.4-0.7c0-0.1,0-0.2-0.1-0.4c-0.1-0.1-0.2-0.3-0.4-0.4l-0.9-0.6c-0.3-0.2-0.5-0.5-0.5-0.8
	c0,0,0-0.1,0-0.1c0-0.3,0.1-0.5,0.3-0.6c0.2-0.2,0.4-0.3,0.8-0.3c0.2,0,0.4,0,0.7,0.1h0.3l-0.1,0.8h0c0-0.2-0.1-0.3-0.2-0.4
	c-0.1-0.1-0.3-0.2-0.5-0.2c-0.3,0-0.5,0.1-0.6,0.2c-0.1,0.1-0.1,0.2-0.1,0.3c0,0.1,0,0.2,0.1,0.2c0.1,0.1,0.1,0.1,0.3,0.2l1,0.6
	c0.2,0.1,0.3,0.3,0.5,0.4c0.1,0.2,0.2,0.4,0.2,0.6c0,0.1,0,0.3-0.1,0.4c-0.1,0.2-0.1,0.3-0.3,0.4c-0.1,0.1-0.3,0.2-0.5,0.3
	c-0.2,0.1-0.4,0.1-0.7,0.1c-0.2,0-0.5,0-0.7-0.1c-0.4-0.2-0.6-0.4-0.7-0.8c0-0.1,0-0.2,0-0.3C645.4-143.7,645.5-144,645.7-144.2
	L645.7-144.2z"/>
<path class="st0" d="M653.4-146.4c0.6,0,1.1,0.2,1.5,0.5c0.4,0.3,0.6,0.8,0.6,1.4s-0.2,1-0.6,1.4c-0.4,0.3-0.9,0.5-1.5,0.5
	c-0.6,0-1.1-0.2-1.5-0.5c-0.4-0.3-0.6-0.8-0.6-1.4c0-0.4,0.1-0.7,0.3-1c0.2-0.3,0.4-0.5,0.7-0.7C652.6-146.3,653-146.4,653.4-146.4
	 M652.5-143.3c0.2,0.3,0.5,0.4,0.9,0.4s0.7-0.1,0.9-0.4c0.2-0.3,0.3-0.7,0.3-1.2c0-0.3-0.1-0.6-0.1-0.9c-0.1-0.2-0.2-0.4-0.4-0.6
	c-0.2-0.1-0.4-0.2-0.7-0.2c-0.4,0-0.7,0.1-0.9,0.4c-0.2,0.3-0.3,0.7-0.3,1.2S652.3-143.6,652.5-143.3"/>
<path class="st0" d="M662.3-146.3L662.3-146.3c-0.2,0-0.2,0-0.3,0.1c-0.1,0-0.1,0.1-0.1,0.2v2c0,0.4-0.1,0.8-0.4,1
	c-0.3,0.2-0.6,0.4-1.1,0.4c-0.5,0-1-0.1-1.2-0.4c-0.3-0.2-0.4-0.6-0.4-1v-2c0-0.1,0-0.1-0.1-0.2c-0.1,0-0.1-0.1-0.2-0.1h-0.1v-0.1
	h1.5v0.1h-0.1c-0.1,0-0.1,0-0.2,0.1c-0.1,0-0.1,0.1-0.1,0.2v2c0,0.4,0.1,0.7,0.3,0.9c0.2,0.2,0.4,0.3,0.7,0.3c0.3,0,0.6-0.1,0.7-0.3
	c0.2-0.2,0.3-0.5,0.3-0.8v-2c0-0.1,0-0.1-0.1-0.2c-0.1,0-0.1-0.1-0.2-0.1h-0.1v-0.1L662.3-146.3L662.3-146.3z"/>
<path class="st0" d="M665.4-142.8c0.1,0,0.2,0,0.2-0.1s0.1-0.1,0.1-0.2v-2.9c0-0.1-0.1-0.2-0.2-0.3c0,0-0.1,0-0.2,0h-0.1v-0.1h1.6
	l0,0.1h-0.1c-0.1,0-0.2,0.1-0.3,0.2c0,0.1,0,0.1,0,0.2v2.9c0,0.1,0,0.2,0.1,0.2c0.1,0.1,0.1,0.1,0.2,0.1h0.1l0,0.1L665.4-142.8
	L665.4-142.8L665.4-142.8z M669.1-142.7h-0.4c-0.5,0-0.9-0.1-1.1-0.4c-0.6-0.8-0.9-1.3-0.9-1.3l1.2-1.6c0,0,0-0.1,0-0.1
	c0,0,0-0.1,0-0.1c0-0.1-0.1-0.1-0.1-0.1h-0.1v0h1.2v0h0c-0.2,0-0.4,0.1-0.6,0.2l-1,1.2l1.3,1.7C668.7-142.9,668.9-142.8,669.1-142.7
	L669.1-142.7z"/>
<path class="st0" d="M605.8-232.9c-0.4,0.9-1.1,1.2-2,1.2c-1.7-0.1-3.4-0.2-5.1-0.4c-1.4-0.2-2.6-0.8-3.7-1.8c0,0.7,0.1,1.3,0.1,2
	c-0.1,2.1-1.1,3.9-2,5.8c-0.3,0.5-0.6,1-0.9,1.5c-0.7,0.9-2,1-2.6,0c-1.3-2-2.5-4.2-2.9-6.6c-0.1-0.6,0-1.3,0-1.9
	c0-0.2,0-0.4,0.1-0.7c-1.1,1-2.3,1.5-3.6,1.8c-1.9,0.4-3.9,0.5-5.9,0.4c-1-0.1-1.7-1.2-1.2-2.2c1-2,2.1-3.9,3.8-5.4
	c0.8-0.7,1.8-1.2,2.6-1.7c-2.2-0.7-3.6-2.4-4.9-4.3c-0.6-0.8-1.1-1.7-1.5-2.6c-0.6-1.1,0.1-2.2,1.3-2.3c2.2-0.1,4.4-0.1,6.5,0.6
	c1,0.3,1.9,0.9,2.8,1.3c0-0.8-0.1-1.7,0-2.6c0.4-2.4,1.6-4.5,2.9-6.5c0.5-0.8,1.8-0.8,2.4,0c1.4,2.2,2.7,4.5,3,7.1
	c0.1,0.7,0,1.4,0,2.1c0,0,0,0,0.1,0c1.5-1.3,3.3-1.8,5.2-1.9c1-0.1,2.1-0.1,3.2-0.1c1-0.1,1.8,0.2,2.2,1.1v0.9
	c-0.5,0.8-1,1.7-1.5,2.5c-1.3,2-2.7,3.9-5.3,4.7c2.1,0.6,3.4,2,4.6,3.6c0.8,1.2,1.5,2.5,2.3,3.7V-232.9z M589.1-246.1
	c-0.2,0.2-0.5,0.5-0.6,0.7c-0.3,0.8-0.8,1.3-1.7,1.6c-0.7,0.2-0.8,0.6-0.5,1.2c0.4,0.8,0.4,1.6,0,2.4c-0.3,0.6-0.1,1,0.5,1.2
	c0.8,0.3,1.4,0.9,1.7,1.7c0.2,0.7,0.6,0.8,1.2,0.5c0.8-0.4,1.5-0.4,2.3,0c0.7,0.3,1,0.2,1.3-0.5c0.3-0.8,0.8-1.4,1.7-1.7
	c0.6-0.2,0.8-0.6,0.5-1.2c-0.4-0.8-0.4-1.6,0-2.4c0.3-0.7,0.2-1-0.6-1.3c-0.8-0.3-1.3-0.8-1.6-1.6c-0.3-0.8-0.6-0.9-1.4-0.6
	c-0.7,0.3-1.5,0.3-2.2,0C589.6-246,589.4-246,589.1-246.1 M601.9-233.4c0-0.1,0-0.1,0-0.2c-0.8-0.5-1.6-0.9-2.4-1.4
	c-1.2-0.7-2.5-1.4-3.7-2.2c-0.3-0.2-0.6,0-0.7,0.2c-0.1,0.2-0.1,0.5,0,0.6c0.9,1,1.8,2,3.1,2.3C599.4-233.8,600.7-233.6,601.9-233.4
	 M579.7-233.4c0.6,0,1-0.1,1.3-0.1c2.2-0.1,4.1-0.9,5.5-2.6c0.2-0.3,0.3-0.5,0.1-0.8c-0.2-0.3-0.5-0.3-0.8-0.1
	c-1.9,1.1-3.8,2.2-5.8,3.3C580-233.7,579.9-233.6,579.7-233.4 M591.8-227.7c1.3-2.2,2.2-4.5,1.1-7.1h-1.1V-227.7z M590-227.6v-7.2
	c-0.4,0-0.7,0-1.1,0.1C588.1-232.3,588.4-230.1,590-227.6 M586.7-245.7c-1.6-2-4.6-3.2-6.8-2.7c0.2,0.1,0.3,0.2,0.5,0.3
	c1.5,0.9,3,1.7,4.4,2.6C585.5-245,586-245.2,586.7-245.7 M595.2-245.7c0.6,0.6,1,0.6,1.7,0.2c1.5-0.9,3.1-1.8,4.6-2.7
	c0.2-0.1,0.3-0.2,0.4-0.3C599.3-248.4,596.9-248,595.2-245.7 M584.3-239.6c-2.3,0.4-4.8,2.5-5.4,4.5c1.9-1.1,3.8-2.2,5.7-3.3
	C584.5-238.8,584.4-239.2,584.3-239.6 M602.8-235.1c-1.3-2.2-2.7-4.1-5.4-4.4c-0.1,0.4-0.2,0.7-0.3,1.2
	C599-237.3,600.9-236.2,602.8-235.1 M602.8-246.9c-1.7,1-3.5,2-5.2,3c-0.1,0.1-0.2,0.2-0.2,0.3c0,0.4,0,0.7,0,1.1
	C600.1-242.8,601.6-244.7,602.8-246.9 M591.8-247.8h1.3c0.8-2.4-0.1-4.5-1.3-6.5V-247.8z M584.4-242.4c0-0.3-0.1-0.5,0-0.7
	c0.1-0.4,0-0.6-0.4-0.8c-1.6-0.9-3.1-1.8-4.6-2.7c-0.1-0.1-0.3-0.1-0.4-0.2C580.2-244.7,581.7-242.8,584.4-242.4 M590-247.8v-6.5
	c-1.1,2-2.1,4.1-1.2,6.5H590z"/>
</svg>
