<?xml version="1.0" encoding="utf-8"?>
<!-- Generator: Adobe Illustrator 27.3.1, SVG Export Plug-In . SVG Version: 6.00 Build 0)  -->
<svg version="1.1" id="Layer_1" xmlns="http://www.w3.org/2000/svg" xmlns:xlink="http://www.w3.org/1999/xlink" x="0px" y="0px"
	 viewBox="0 0 846 318.9" style="enable-background:new 0 0 846 318.9;" xml:space="preserve">
<style type="text/css">
	.st0{fill:#9B2020;}
</style>
<g>
	<g>
		<g>
			<path class="st0" d="M240.8,104.1C235,96.7,227.4,92,217.9,90c8.4-2.5,15.2-6.9,20.2-13.3c5.1-6.4,7.6-14.4,7.6-24.1
				c0-13.1-4.7-23.5-14.1-31.1c-9.4-7.6-22.5-11.5-39.2-11.5h-66.6c-4,0-7.3,3.3-7.3,7.3v146.4c10.7-6.3,20.5-14.1,29.4-23.2
				c-7.8-10.1-7.3-21.4-1.9-30.9c0,0,0,0,0,0c0-0.1,0.1-0.1,0.1-0.2c0,0,0,0,0-0.1c0,0,0,0,0,0c15.1-16.2,24.7-52.2,25.9-53
				c2.7,0.1-5,37.4-18.2,56.6c1.6,0.7,3.1,1.5,4.7,2.2c15.8-19.3,24.5-59.2,25.6-59.9c2.8,0.1-3.9,41.2-17.9,63.5
				c1.6,0.7,3.1,1.5,4.7,2.2c16.6-22.3,24.3-66.2,25.3-66.9c2.9,0-2.8,45.1-17.5,70.5c1.6,0.7,3.2,1.5,4.7,2.2
				c17.4-25.4,24.1-73.3,25-73.9c3-0.1-1.7,49-17.2,77.5c0,0,0,0,0,0c0,0.1-0.1,0.2-0.2,0.4c0,0,0,0,0,0
				c-8.9,14.7-24.3,21.5-35.9,15.6c-8.6,10.5-18.6,19.9-29.7,27.8H195c17.1,0,30.5-4,40.1-12c9.6-8,14.4-18.9,14.4-32.6
				C249.5,120,246.6,111.5,240.8,104.1"/>
			<path class="st0" d="M144.9,197.5c-64.7-25-97.7-96.4-75.8-161.5c-0.7,1.7-1.5,3.4-2.1,5.2c-25.7,66.5,7.3,141.2,73.8,167
				c66.5,25.7,141.3-7.3,167-73.8c0.7-1.8,1.3-3.6,1.9-5.4C282.2,191.9,209.7,222.6,144.9,197.5"/>
			<path class="st0" d="M6.9,236c0.5-0.4,1-0.7,1.6-0.9c0.5-0.3,1.1-0.5,1.7-0.6c0.6-0.2,1.4-0.3,2.2-0.3c1.5,0,2.7,0.2,3.6,0.7
				c0.9,0.5,1.5,1.1,1.9,2c1-0.7,2.4-1.3,4.1-1.8c1.7-0.5,3.6-0.8,5.9-0.8c2.3,0,4.3,0.3,6.1,0.9c1.8,0.6,3.3,1.5,4.6,2.5
				c1.2,1,2.2,2.3,2.8,3.6c0.6,1.4,0.9,2.8,0.9,4.3c0,2.1-0.5,4-1.5,5.7c-1,1.7-2.4,3.2-4.2,4.4c1.1,0.6,2.2,1.3,3.3,2.1
				c1.1,0.8,2,1.7,2.8,2.7c0.8,1,1.5,2.1,2,3.2c0.5,1.1,0.8,2.3,0.8,3.4c0,1.9-0.4,3.7-1.3,5.2c-0.8,1.6-2,2.9-3.5,3.9
				c-1.5,1.1-3.2,1.9-5.2,2.5c-2,0.6-4.2,0.9-6.6,0.9s-4.5-0.2-6.2-0.7c-1.7-0.4-3.1-0.9-4.1-1.3v1.4H9.7v-39.9
				c0-0.8-0.3-1.4-0.8-1.7c-0.5-0.3-1.2-0.5-2.1-0.5V236z M25.3,259.9c-1.4,0-2.5-0.3-3.3-0.8c-0.8-0.6-1.2-1.3-1.2-2.3h0.1
				c0-1.1,0.5-2.1,1.5-2.8c1-0.7,2.2-1.1,3.7-1.1c1,0,2,0.1,2.9,0.2c0.9,0.1,1.7,0.3,2.5,0.6c0.8-1,1.3-2.2,1.8-3.5
				c0.5-1.3,0.7-2.9,0.7-4.6c0-2.3-0.7-4.1-2.1-5.5c-1.4-1.4-3.5-2.1-6.4-2.1c-1.6,0-2.9,0.1-4,0.3c-1.2,0.2-2.2,0.4-3,0.7
				c0,0.2,0.1,0.4,0.1,0.6v0.6v33.7c0.7,0.3,1.7,0.6,2.8,0.8c1.2,0.2,2.7,0.4,4.7,0.4c1.4,0,2.6-0.2,3.9-0.6c1.3-0.4,2.3-1,3.3-1.8
				c0.9-0.8,1.7-1.7,2.2-2.8c0.5-1.1,0.8-2.3,0.8-3.6c0-1.7-0.3-3.4-0.9-4.8c-0.6-1.4-1.5-2.5-2.5-3.2c-1.5,0.7-2.8,1.2-4.1,1.4
				C27.3,259.8,26.2,259.9,25.3,259.9"/>
			<path class="st0" d="M54.9,238.9c1.5,0,2.7,0.4,3.5,1.3c0.8,0.9,1.3,1.8,1.4,2.9c0,0.9-0.3,1.8-1.1,2.7c-0.8,0.9-1.9,1.4-3.5,1.4
				c-1.6,0-2.8-0.4-3.6-1.3c-0.8-0.9-1.2-1.8-1.2-2.8c-0.1-0.9,0.2-1.8,0.9-2.8C52,239.4,53.2,238.9,54.9,238.9 M50.7,252.7H59v21.5
				c0,1.4,0.3,2.2,0.8,2.6c0.6,0.4,1.1,0.6,1.8,0.6v1c-0.5,0.4-1,0.8-1.6,1.1c-0.5,0.3-1,0.5-1.6,0.7c-0.6,0.2-1.2,0.3-1.9,0.3
				c-0.8,0-1.6-0.1-2.3-0.3c-0.7-0.2-1.4-0.6-1.9-1.2c-0.5-0.6-0.9-1.3-1.2-2.3c-0.3-0.9-0.4-2.1-0.4-3.5V252.7z"/>
			<path class="st0" d="M74.5,279.1h-8.8v-21.7c0-1.3-0.3-2.1-0.9-2.5c-0.6-0.4-1.3-0.6-1.9-0.6l-0.1-1c0.5-0.4,1.1-0.7,1.7-1
				c0.5-0.3,1.1-0.5,1.8-0.7c0.7-0.2,1.3-0.3,2-0.3c1.5,0,2.7,0.4,3.8,1.1c1.1,0.7,1.8,2,2.2,3.9c1.6-1.5,3-2.5,4.3-3.2
				c1.3-0.7,2.6-1,4.1-1c1.3,0,2.3,0.3,3.1,0.9c0.8,0.6,1.2,1.4,1.3,2.4c0.1,1-0.2,1.9-0.8,2.8c-0.6,0.9-1.6,1.3-3.2,1.3
				c-0.9,0-1.7-0.2-2.3-0.5c-0.5-0.3-0.9-0.7-1.2-1c-0.3-0.5-0.6-1-0.7-1.6c-0.3,0.3-0.7,0.5-1.2,0.8c-0.4,0.3-0.9,0.7-1.5,1.1
				c-0.6,0.4-1.2,1-1.9,1.6V279.1z"/>
			<path class="st0" d="M94.5,238.9c1.5,0,2.7,0.4,3.5,1.3c0.8,0.9,1.3,1.8,1.4,2.9c0,0.9-0.3,1.8-1.1,2.7c-0.8,0.9-1.9,1.4-3.5,1.4
				c-1.6,0-2.8-0.4-3.6-1.3c-0.8-0.9-1.2-1.8-1.2-2.8c-0.1-0.9,0.2-1.8,0.9-2.8C91.6,239.4,92.8,238.9,94.5,238.9 M90.3,252.7h8.3
				v21.5c0,1.4,0.3,2.2,0.8,2.6c0.6,0.4,1.1,0.6,1.8,0.6v1c-0.5,0.4-1,0.8-1.6,1.1c-0.5,0.3-1,0.5-1.6,0.7c-0.6,0.2-1.2,0.3-1.9,0.3
				c-0.8,0-1.6-0.1-2.3-0.3c-0.7-0.2-1.4-0.6-1.9-1.2c-0.5-0.6-0.9-1.3-1.2-2.3c-0.3-0.9-0.4-2.1-0.4-3.5V252.7z"/>
			<path class="st0" d="M140.8,286.6c-0.3-0.3-1-0.9-2.1-1.7c-1.1-0.8-2.7-1.3-4.8-1.6v9.4c0,0.9-0.1,1.9-0.3,3.1
				c-0.2,1.2-0.7,2.3-1.3,3.4c-0.7,1.1-1.6,2-2.7,2.7c-1.2,0.8-2.7,1.1-4.5,1.1c-2.4,0-4.3-0.4-5.7-1.1c-1.4-0.7-2.4-1.6-3.1-2.6
				c-0.7-1-1.1-1.9-1.3-2.8c-0.2-0.9-0.3-1.6-0.3-2.1c0-1.3,0.3-2.5,0.8-3.9c0.5-1.3,1.2-2.6,2.1-3.8c0.9-1.2,2-2.3,3.2-3.3
				c1.3-1,2.6-1.8,4.1-2.4v-7c-0.5,0.6-1,1.2-1.8,1.9c-0.7,0.7-1.6,1.4-2.6,2.1c-1,0.7-2.1,1.3-3.3,1.8c-1.2,0.5-2.5,0.7-3.9,0.7
				c-1,0-2-0.1-3-0.4c-0.9-0.3-1.7-0.7-2.5-1.4c-0.7-0.7-1.3-1.5-1.7-2.6c-0.4-1.1-0.6-2.4-0.6-4V257c0-0.9-0.2-1.6-0.7-2
				c-0.5-0.4-1.3-0.6-2.4-0.6v-1c0.5-0.3,1.1-0.7,1.7-1c0.5-0.2,1.1-0.5,1.8-0.7c0.6-0.2,1.3-0.3,2.1-0.3c2.4,0,4,0.7,5,2
				c1,1.3,1.5,3.1,1.5,5.2v13.6c0,1.4,0.2,2.3,0.7,2.8c0.5,0.5,1.1,0.8,2,0.8c0.6,0,1.4-0.2,2.2-0.7c0.8-0.5,1.6-1,2.3-1.7
				c0.7-0.6,1.4-1.3,2-1.8l1.2-1.2v-17.5h9.1v27.7c1.4,0.3,2.6,0.6,3.6,1.1c1,0.5,1.8,1,2.4,1.5s1,1,1.3,1.5
				c0.3,0.5,0.4,0.9,0.4,1.2L140.8,286.6z M119.3,294.1c0,1.7,0.3,3.1,0.9,3.9c0.6,0.9,1.3,1.3,2,1.2c0.7,0,1.2-0.4,1.8-1.1
				c0.5-0.7,0.8-1.8,0.8-3.1v-10c-1.8,1.2-3.2,2.7-4.1,4.5C119.7,291.2,119.3,292.8,119.3,294.1"/>
			<path class="st0" d="M165.1,273c0,0.8,0.2,1.6,0.5,2.5c0.3,0.9,0.9,1.5,1.8,1.8c0.4,0.1,0.7,0.2,0.9,0.2l0.1,1
				c-0.2,0.3-0.6,0.6-1,0.8c-0.5,0.2-0.9,0.4-1.4,0.6c-0.5,0.1-1,0.3-1.5,0.3c-0.5,0.1-0.9,0.1-1.3,0.1c-1.2,0-2.3-0.3-3.4-0.8
				c-1.1-0.5-2-1.2-2.7-2c-0.8,0.8-1.9,1.6-3.1,2.2c-1.2,0.6-2.7,0.9-4.3,0.9c-3.3,0-5.8-0.7-7.6-1.9c-1.7-1.3-2.6-3.2-2.6-5.6
				c0-2.1,0.6-3.9,1.8-5.2c1.2-1.3,2.6-2.3,4.3-3.1s3.4-1.3,5.3-1.5c1.9-0.3,3.5-0.4,4.8-0.5v-2.8c0-0.6-0.1-1.2-0.3-1.8
				c-0.2-0.6-0.5-1.1-0.9-1.6c-0.4-0.5-0.9-0.9-1.5-1.2c-0.6-0.3-1.3-0.5-2.2-0.5c-1.2,0-2.3,0.3-3.2,1c-0.9,0.7-1.3,1.6-1.2,2.7
				c0,0.8-0.2,1.6-0.8,2.2c-0.6,0.7-1.4,1-2.5,1c-0.9,0-1.7-0.3-2.4-0.8c-0.7-0.5-1.1-1.2-1.2-2c0-0.9,0.2-1.8,0.8-2.7
				c0.6-0.9,1.5-1.7,2.5-2.5c1.1-0.8,2.4-1.4,3.8-1.8c1.5-0.4,3-0.7,4.6-0.7c2.3,0,4.2,0.3,5.9,1c1.7,0.6,3.1,1.5,4.2,2.5
				c1.1,1,1.9,2.1,2.5,3.4c0.6,1.2,0.9,2.4,1,3.6c0.1,1.8,0.1,3.7,0.1,5.5C165.1,269,165.1,271,165.1,273 M151.9,276.4
				c0.7,0,1.4-0.1,2.1-0.4c0.7-0.3,1.3-0.6,1.9-1c-0.1-0.3-0.1-0.5-0.1-0.8c0-0.3,0-0.6,0-0.9v-8c-1.2,0.3-2.2,0.7-3.2,1.2
				c-1,0.5-1.9,1.1-2.6,1.8c-0.7,0.6-1.3,1.3-1.7,2.1c-0.4,0.7-0.6,1.5-0.5,2.2c0.1,1,0.4,1.8,1,2.6
				C149.2,276,150.3,276.4,151.9,276.4"/>
			<path class="st0" d="M171.9,279.1v-21.7c0-1.3-0.2-2.1-0.8-2.5c-0.5-0.4-1.1-0.6-1.8-0.6v-1c0.5-0.4,1-0.7,1.6-1
				c0.5-0.3,1.1-0.5,1.7-0.7c0.6-0.2,1.3-0.3,2-0.3c1.4,0,2.6,0.4,3.7,1.2c1.1,0.8,1.7,2.4,1.9,4.6c0.4-0.6,1-1.2,1.7-1.8
				c0.7-0.7,1.4-1.3,2.3-1.9c0.9-0.6,1.8-1.1,2.9-1.5c1-0.4,2.2-0.6,3.4-0.6c0.9,0,1.8,0.1,2.7,0.4c0.9,0.3,1.6,0.7,2.3,1.4
				c0.7,0.6,1.2,1.5,1.6,2.5c0.4,1.1,0.6,2.4,0.6,4.1v15.2c0,1,0.2,1.6,0.6,2c0.4,0.4,1.1,0.6,2.1,0.6v1c-0.5,0.4-1,0.7-1.6,1
				c-0.5,0.3-1,0.5-1.6,0.7c-0.6,0.2-1.2,0.3-1.9,0.3c-2.1,0-3.6-0.6-4.5-1.9c-0.9-1.3-1.3-3-1.3-5.2v-13.6c0-1.3-0.2-2.3-0.6-2.8
				c-0.4-0.5-1-0.8-1.8-0.8c-0.5,0-1.1,0.2-1.8,0.6c-0.6,0.4-1.2,0.8-1.8,1.4c-0.6,0.5-1.2,1.1-1.7,1.6c-0.5,0.6-1,1.1-1.3,1.5v17.8
				H171.9z"/>
			<path class="st0" d="M208.2,238.9c1.5,0,2.7,0.4,3.5,1.3c0.8,0.9,1.3,1.8,1.4,2.9c0,0.9-0.3,1.8-1.1,2.7
				c-0.8,0.9-1.9,1.4-3.5,1.4c-1.6,0-2.8-0.4-3.6-1.3c-0.8-0.9-1.2-1.8-1.2-2.8c-0.1-0.9,0.2-1.8,0.9-2.8
				C205.3,239.4,206.5,238.9,208.2,238.9 M204,252.7h8.3v21.5c0,1.4,0.3,2.2,0.8,2.6c0.6,0.4,1.1,0.6,1.8,0.6v1
				c-0.5,0.4-1,0.8-1.6,1.1c-0.5,0.3-1,0.5-1.6,0.7c-0.6,0.2-1.2,0.3-1.9,0.3c-0.8,0-1.6-0.1-2.3-0.3c-0.7-0.2-1.4-0.6-1.9-1.2
				c-0.5-0.6-0.9-1.3-1.2-2.3c-0.3-0.9-0.4-2.1-0.4-3.5V252.7z"/>
			<path class="st0" d="M218.7,246.7c0-1.5,0.3-3,1-4.5c0.7-1.5,1.7-2.9,3.1-4.1c1.4-1.2,3.2-2.2,5.4-2.9c2.2-0.8,4.9-1.1,8-1.1
				c2.8,0,5.2,0.3,7.1,0.9c1.9,0.6,3.5,1.4,4.7,2.3c1.2,0.9,2.1,1.9,2.6,3c0.5,1.1,0.8,2.1,0.8,3c0,0.7-0.2,1.5-0.5,2.2
				c-0.3,0.8-0.7,1.5-1.3,2.1c-0.6,0.7-1.3,1.2-2,1.6c-0.8,0.4-1.6,0.6-2.5,0.6c-1.6,0-3-0.5-4.1-1.5c-1.1-1-1.7-2.5-1.7-4.5
				c0-0.8,0.2-1.6,0.5-2.2c0.3-0.7,0.6-1.2,1-1.7c0.3-0.5,0.6-0.9,0.8-1.3c0.2-0.3,0.2-0.6-0.1-0.8c-0.3-0.2-0.8-0.3-1.6-0.4
				c-0.8-0.1-2-0.2-3.7-0.2c-1.4,0-2.7,0.1-4,0.4c-1.3,0.3-2.5,0.6-3.5,1.2c-1,0.5-1.9,1.2-2.5,2c-0.6,0.8-0.9,1.8-0.9,2.9
				c0,1,0.4,1.9,1.2,2.8c0.8,0.9,1.8,1.6,3,2.3c1.2,0.7,2.5,1.4,4,2c1.5,0.6,2.9,1.2,4.2,1.8c1.8,0.8,3.7,1.6,5.7,2.5
				c2,0.9,3.8,1.9,5.5,3.1c1.7,1.2,3.1,2.5,4.2,3.9c1.1,1.5,1.7,3.1,1.7,4.9c0,1.8-0.5,3.6-1.5,5.1c-1,1.6-2.3,2.9-4.1,4
				c-1.7,1.1-3.8,2-6.2,2.6c-2.4,0.6-5,0.9-7.8,0.9c-3.3,0-6-0.3-8.1-1c-2.2-0.7-3.9-1.5-5.2-2.6c-1.3-1-2.3-2.2-2.8-3.4
				c-0.6-1.2-0.9-2.5-0.9-3.7c0-2.3,0.7-4.1,2.1-5.4c1.4-1.3,3-1.9,4.8-1.9c1.4,0,2.6,0.3,3.6,0.9c1,0.6,1.8,1.3,2.4,2.1
				c0.6,0.8,1,1.6,1.3,2.4c0.3,0.8,0.4,1.5,0.4,1.9l-0.7,0.6c-0.4-0.7-0.9-1.3-1.4-1.9c-0.5-0.4-1.1-0.9-1.8-1.3
				c-0.7-0.4-1.5-0.6-2.4-0.6c-0.9,0-1.7,0.4-2.2,1.1c-0.5,0.7-0.8,1.5-0.8,2.5c0,0.8,0.3,1.7,0.8,2.6c0.6,0.9,1.3,1.7,2.3,2.4
				c0.9,0.7,2,1.3,3.3,1.7c1.3,0.4,2.6,0.6,4.1,0.6c1.6,0,3-0.1,4.4-0.3c1.4-0.2,2.6-0.5,3.6-0.9c1.1-0.5,1.9-1.1,2.5-1.8
				c0.6-0.8,0.9-1.7,0.9-2.9c0-1.2-0.4-2.3-1.1-3.3c-0.7-1-1.7-1.8-3-2.6c-1.3-0.8-2.8-1.6-4.6-2.4c-1.8-0.8-3.7-1.7-5.9-2.7
				c-4.1-1.9-7.1-3.8-9-5.8C219.6,252,218.7,249.6,218.7,246.7"/>
			<path class="st0" d="M274.4,251.3c2.1,0,4.2,0.3,6.1,0.9c2,0.6,3.7,1.4,5.2,2.5c1.6,1.1,2.8,2.4,3.8,4c0.9,1.6,1.5,3.3,1.7,5.3
				c0.2,2.7-0.2,5.1-1.1,7.1c-0.9,2-2.2,3.8-3.8,5.1c-1.6,1.4-3.4,2.4-5.4,3.1c-2,0.7-4.1,1.1-6.1,1.1c-2,0-4.1-0.3-6-0.9
				c-1.9-0.6-3.7-1.5-5.2-2.7c-1.6-1.2-2.8-2.6-3.8-4.3c-1-1.7-1.6-3.7-1.7-5.9c-0.1-2.2,0.2-4.2,1-6.1c0.8-1.9,2-3.5,3.5-4.9
				c1.5-1.4,3.3-2.5,5.4-3.2C269.9,251.7,272.1,251.3,274.4,251.3 M275.6,277.5c1.2,0,2.3-0.3,3.1-0.8c0.8-0.5,1.4-1.3,1.8-2.4
				c0.4-1.1,0.6-2.4,0.7-4.1c0.1-1.6,0-3.5-0.1-5.7c-0.3-3-1-5.4-2.2-7.3c-1.2-1.9-3-2.8-5.5-2.8c-2.2,0-3.8,1.1-4.6,3.3
				c-0.8,2.2-1.1,5.2-0.9,9c0.3,3.3,1,5.9,2.2,7.9C271.4,276.5,273.2,277.5,275.6,277.5"/>
			<path class="st0" d="M322.9,252.7v21.7c0,1.3,0.3,2.1,0.8,2.5c0.6,0.4,1.2,0.6,1.9,0.6v1c-0.6,0.4-1.1,0.7-1.7,1
				c-0.6,0.3-1.2,0.5-1.8,0.7c-0.7,0.2-1.4,0.3-2.1,0.3c-1.5,0-2.9-0.4-4-1.2c-1.1-0.8-1.8-2.3-2.1-4.5c-0.5,0.6-1,1.2-1.7,1.8
				c-0.7,0.7-1.5,1.3-2.4,1.9c-0.9,0.6-2,1.1-3.1,1.5c-1.1,0.4-2.3,0.6-3.6,0.6c-1,0-2-0.1-2.9-0.4c-0.9-0.2-1.7-0.7-2.4-1.3
				c-0.7-0.6-1.2-1.5-1.6-2.6c-0.4-1.1-0.6-2.4-0.6-4v-15.4c0-1.7-0.9-2.5-2.8-2.5v-1c0.5-0.3,1-0.7,1.6-1c0.5-0.2,1.1-0.5,1.7-0.7
				c0.6-0.2,1.3-0.3,2-0.3c2.3,0,3.9,0.7,4.8,1.9c0.9,1.3,1.3,3,1.3,5.1v13.9c0,1.4,0.2,2.3,0.7,2.8c0.5,0.5,1.1,0.8,1.9,0.8
				c0.6,0,1.2-0.2,1.9-0.6c0.7-0.4,1.3-0.8,2-1.3c0.7-0.5,1.3-1,1.8-1.6c0.6-0.6,1-1,1.4-1.4v-18.1H322.9z"/>
			<path class="st0" d="M326.1,238.4c0.6-0.2,1.4-0.5,2.4-0.9c1-0.4,2.1-0.6,3.3-0.6c1.1,0,2.1,0.1,2.8,0.4c0.8,0.3,1.4,0.7,1.8,1.3
				c0.5,0.6,0.8,1.2,0.9,2c0.2,0.8,0.3,1.6,0.3,2.6v13.2c0.6-0.6,1.2-1.1,1.9-1.7c0.7-0.6,1.5-1.2,2.3-1.7c0.8-0.5,1.7-0.9,2.5-1.3
				c0.9-0.3,1.8-0.5,2.7-0.5c1.8,0,3.2,0.5,4.3,1.4c1.1,0.9,1.7,2.1,1.8,3.6c0,0.8-0.1,1.7-0.5,2.5c-0.4,0.8-0.9,1.5-1.6,2.2
				c-0.7,0.7-1.5,1.3-2.5,1.8c-1,0.6-2,1-3.1,1.4c0.4,0.4,0.9,0.9,1.6,1.6c0.6,0.7,1.4,1.5,2.1,2.3c0.8,0.8,1.6,1.7,2.4,2.6
				c0.8,0.9,1.6,1.8,2.4,2.7c1.2,1.5,2.4,2.4,3.4,3c1,0.5,2.3,0.8,3.7,0.8v0.8c-0.6,0.5-1.1,0.9-1.7,1.3c-0.6,0.4-1.1,0.7-1.8,0.9
				c-0.6,0.2-1.3,0.4-1.9,0.4c-1.7,0-3.1-0.3-4.5-1c-1.4-0.7-2.6-1.5-3.7-2.5c-1.1-1-2.1-2.1-3-3.3c-0.9-1.2-1.7-2.3-2.4-3.3
				c-0.7-1-1.4-1.8-2-2.5c-0.6-0.7-1.2-1-1.7-1h-0.8v12.2h-8.3v-37c0-0.8-0.3-1.4-0.9-1.7c-0.6-0.3-1.3-0.5-2.1-0.5L326.1,238.4z
				 M344.8,255.4c-0.4,0-1,0.2-1.6,0.5c-0.6,0.3-1.2,0.8-1.8,1.3c-0.6,0.6-1.3,1.2-1.9,1.8c-0.7,0.7-1.2,1.3-1.7,1.9v3.1l1-0.1
				c1.5-0.4,2.9-1,4.2-1.9c1.3-0.9,2.3-1.9,3-2.9c0.7-1,1-1.8,0.9-2.6C346.7,255.8,346,255.4,344.8,255.4"/>
			<polygon class="st0" points="153.3,293.8 153.3,295.2 149.6,295.2 149.6,307.5 147.8,307.5 147.8,295.2 144.1,295.2 144.1,293.8 
							"/>
			<path class="st0" d="M163.1,297c0.7,0.3,1.2,0.9,1.6,1.6c0.4,0.7,0.6,1.5,0.6,2.5v6.4h-1.8v-6.1c0-1.1-0.3-1.9-0.8-2.5
				c-0.5-0.6-1.3-0.9-2.2-0.9c-0.9,0-1.7,0.3-2.3,0.9c-0.6,0.6-0.8,1.5-0.8,2.6v6h-1.8v-14.6h1.8v5.3c0.3-0.6,0.8-1,1.5-1.3
				c0.6-0.3,1.3-0.5,2.1-0.5C161.7,296.5,162.4,296.7,163.1,297"/>
			<path class="st0" d="M177.9,302.8h-8.6c0.1,1.1,0.4,1.9,1.1,2.5c0.7,0.6,1.5,0.9,2.4,0.9c0.8,0,1.4-0.2,1.9-0.5
				c0.5-0.4,0.9-0.8,1.1-1.4h1.9c-0.3,1-0.9,1.9-1.7,2.5c-0.9,0.6-1.9,1-3.2,1c-1,0-1.9-0.2-2.7-0.7c-0.8-0.5-1.4-1.1-1.9-2
				c-0.5-0.8-0.7-1.8-0.7-2.9c0-1.1,0.2-2.1,0.7-2.9c0.4-0.8,1.1-1.5,1.9-1.9c0.8-0.4,1.7-0.7,2.8-0.7c1,0,1.9,0.2,2.7,0.7
				c0.8,0.5,1.4,1.1,1.8,1.8c0.4,0.8,0.6,1.7,0.6,2.6C178,302,178,302.4,177.9,302.8 M175.7,299.6c-0.3-0.5-0.7-0.9-1.2-1.1
				c-0.5-0.3-1.1-0.4-1.7-0.4c-0.9,0-1.7,0.3-2.3,0.9c-0.6,0.6-1,1.4-1.1,2.4h6.8C176.1,300.6,176,300.1,175.7,299.6"/>
			<path class="st0" d="M193.7,304.5h-6l-1.1,3h-1.9l5-13.6h2.1l4.9,13.6h-1.9L193.7,304.5z M193.2,303l-2.5-6.9l-2.5,6.9H193.2z"/>
			<path class="st0" d="M208.4,296.7v10.8h-1.8v-1.6c-0.3,0.6-0.8,1-1.4,1.3c-0.6,0.3-1.3,0.5-2,0.5c-0.8,0-1.6-0.2-2.3-0.5
				c-0.7-0.4-1.2-0.9-1.6-1.6c-0.4-0.7-0.6-1.5-0.6-2.5v-6.3h1.8v6.1c0,1.1,0.3,1.9,0.8,2.5c0.5,0.6,1.3,0.8,2.2,0.8
				c1,0,1.7-0.3,2.3-0.9c0.5-0.6,0.8-1.5,0.8-2.6v-5.9H208.4z"/>
			<path class="st0" d="M213.6,298.2v6.4c0,0.5,0.1,0.9,0.3,1.1c0.2,0.2,0.6,0.3,1.2,0.3h1.3v1.5h-1.6c-1,0-1.7-0.2-2.2-0.7
				c-0.5-0.5-0.8-1.2-0.8-2.3v-6.4h-1.4v-1.5h1.4V294h1.8v2.7h2.8v1.5H213.6z"/>
			<path class="st0" d="M226.1,297c0.7,0.3,1.2,0.9,1.5,1.6c0.4,0.7,0.6,1.5,0.6,2.5v6.4h-1.8v-6.1c0-1.1-0.3-1.9-0.8-2.5
				c-0.5-0.6-1.3-0.9-2.2-0.9c-0.9,0-1.7,0.3-2.3,0.9c-0.6,0.6-0.8,1.5-0.8,2.6v6h-1.8v-14.6h1.8v5.3c0.3-0.6,0.8-1,1.5-1.3
				c0.6-0.3,1.3-0.5,2.1-0.5C224.8,296.5,225.5,296.7,226.1,297"/>
			<path class="st0" d="M241,302.8h-8.6c0.1,1.1,0.4,1.9,1.1,2.5c0.7,0.6,1.5,0.9,2.4,0.9c0.8,0,1.4-0.2,1.9-0.5
				c0.5-0.4,0.9-0.8,1.1-1.4h1.9c-0.3,1-0.9,1.9-1.7,2.5c-0.9,0.6-1.9,1-3.2,1c-1,0-1.9-0.2-2.7-0.7c-0.8-0.5-1.4-1.1-1.9-2
				c-0.5-0.8-0.7-1.8-0.7-2.9c0-1.1,0.2-2.1,0.7-2.9c0.4-0.8,1.1-1.5,1.9-1.9c0.8-0.4,1.7-0.7,2.8-0.7c1,0,1.9,0.2,2.7,0.7
				c0.8,0.5,1.4,1.1,1.8,1.8c0.4,0.8,0.6,1.7,0.6,2.6C241,302,241,302.4,241,302.8 M238.7,299.6c-0.3-0.5-0.7-0.9-1.2-1.1
				c-0.5-0.3-1.1-0.4-1.7-0.4c-0.9,0-1.7,0.3-2.3,0.9c-0.6,0.6-1,1.4-1.1,2.4h6.8C239.2,300.6,239,300.1,238.7,299.6"/>
			<path class="st0" d="M251.8,297.7c0.8,0.8,1.2,1.9,1.2,3.4v6.4h-1.8v-6.1c0-1.1-0.3-1.9-0.8-2.5c-0.5-0.6-1.3-0.9-2.2-0.9
				c-0.9,0-1.7,0.3-2.2,0.9c-0.6,0.6-0.8,1.5-0.8,2.6v6h-1.8v-10.8h1.8v1.5c0.4-0.6,0.8-1,1.5-1.3c0.6-0.3,1.3-0.4,2-0.4
				C249.9,296.5,251,296.9,251.8,297.7"/>
			<path class="st0" d="M258.1,298.2v6.4c0,0.5,0.1,0.9,0.3,1.1c0.2,0.2,0.6,0.3,1.2,0.3h1.3v1.5h-1.6c-1,0-1.7-0.2-2.2-0.7
				c-0.5-0.5-0.8-1.2-0.8-2.3v-6.4H255v-1.5h1.4V294h1.8v2.7h2.8v1.5H258.1z"/>
			<path class="st0" d="M263.2,294.6c-0.2-0.2-0.4-0.5-0.4-0.9c0-0.3,0.1-0.6,0.4-0.9c0.2-0.2,0.5-0.4,0.9-0.4
				c0.3,0,0.6,0.1,0.8,0.4c0.2,0.2,0.3,0.5,0.3,0.9c0,0.3-0.1,0.6-0.3,0.9c-0.2,0.2-0.5,0.4-0.8,0.4
				C263.7,295,263.4,294.8,263.2,294.6 M264.9,307.5h-1.8v-10.8h1.8V307.5z"/>
			<path class="st0" d="M268,299.2c0.4-0.8,1.1-1.5,1.9-1.9c0.8-0.5,1.7-0.7,2.7-0.7c1.3,0,2.4,0.3,3.3,1c0.9,0.6,1.4,1.5,1.7,2.7
				h-1.9c-0.2-0.7-0.5-1.2-1.1-1.6c-0.5-0.4-1.2-0.6-2-0.6c-1,0-1.9,0.4-2.5,1.1c-0.6,0.7-0.9,1.7-0.9,3c0,1.3,0.3,2.3,0.9,3
				c0.6,0.7,1.5,1.1,2.5,1.1c0.8,0,1.4-0.2,2-0.6c0.5-0.4,0.9-0.9,1.1-1.6h1.9c-0.3,1.1-0.9,2-1.7,2.6c-0.9,0.7-1.9,1-3.2,1
				c-1,0-1.9-0.2-2.7-0.7c-0.8-0.5-1.4-1.1-1.9-2c-0.4-0.8-0.7-1.8-0.7-2.9C267.3,301,267.5,300,268,299.2"/>
			<path class="st0" d="M293.4,301c0.4,0.3,0.7,0.7,1,1.2c0.2,0.5,0.4,1,0.4,1.6c0,0.7-0.2,1.3-0.5,1.9c-0.4,0.6-0.9,1-1.5,1.3
				c-0.7,0.3-1.5,0.5-2.4,0.5h-5.1v-13.7h4.9c0.9,0,1.7,0.1,2.4,0.5c0.7,0.3,1.1,0.7,1.5,1.2c0.3,0.5,0.5,1.1,0.5,1.8
				c0,0.8-0.2,1.5-0.7,2c-0.4,0.5-1,0.9-1.7,1.1C292.5,300.5,293,300.7,293.4,301 M286.9,299.7h3c0.8,0,1.5-0.2,1.9-0.6
				c0.5-0.4,0.7-0.9,0.7-1.6c0-0.7-0.2-1.2-0.7-1.6c-0.5-0.4-1.1-0.6-2-0.6h-3V299.7z M292.2,305.4c0.5-0.4,0.8-1,0.8-1.7
				c0-0.8-0.3-1.4-0.8-1.8c-0.5-0.4-1.2-0.7-2.1-0.7h-3.1v4.8h3.2C291,306,291.7,305.8,292.2,305.4"/>
			<path class="st0" d="M297.3,294.6c-0.2-0.2-0.4-0.5-0.4-0.9c0-0.3,0.1-0.6,0.4-0.9c0.2-0.2,0.5-0.4,0.9-0.4
				c0.3,0,0.6,0.1,0.8,0.4c0.2,0.2,0.3,0.5,0.3,0.9c0,0.3-0.1,0.6-0.3,0.9c-0.2,0.2-0.5,0.4-0.8,0.4
				C297.8,295,297.5,294.8,297.3,294.6 M299,307.5h-1.8v-10.8h1.8V307.5z"/>
			<path class="st0" d="M305.2,297c0.6-0.3,1.3-0.5,2.1-0.5v1.8h-0.5c-2,0-3,1.1-3,3.3v5.9H302v-10.8h1.8v1.7
				C304.2,297.9,304.6,297.4,305.2,297"/>
			<path class="st0" d="M309.4,294.6c-0.2-0.2-0.4-0.5-0.4-0.9c0-0.3,0.1-0.6,0.4-0.9c0.2-0.2,0.5-0.4,0.9-0.4
				c0.3,0,0.6,0.1,0.8,0.4c0.2,0.2,0.3,0.5,0.3,0.9c0,0.3-0.1,0.6-0.3,0.9c-0.2,0.2-0.5,0.4-0.8,0.4
				C310,295,309.7,294.8,309.4,294.6 M311.2,307.5h-1.8v-10.8h1.8V307.5z"/>
			<polygon class="st0" points="323.5,296.7 317,312.6 315.2,312.6 317.3,307.4 312.9,296.7 314.9,296.7 318.3,305.4 321.7,296.7 
							"/>
			<path class="st0" d="M325.3,299.2c0.5-0.8,1.1-1.5,1.8-1.9c0.8-0.5,1.7-0.7,2.6-0.7c0.9,0,1.8,0.2,2.5,0.6
				c0.7,0.4,1.2,0.9,1.6,1.5v-2h1.8v10.8h-1.8v-2c-0.3,0.6-0.9,1.1-1.6,1.6c-0.7,0.4-1.5,0.6-2.5,0.6c-1,0-1.8-0.2-2.6-0.7
				c-0.8-0.5-1.4-1.1-1.8-2c-0.4-0.9-0.7-1.8-0.7-2.9C324.6,301,324.9,300,325.3,299.2 M333.3,300c-0.3-0.6-0.8-1.1-1.3-1.4
				c-0.6-0.3-1.2-0.5-1.8-0.5s-1.3,0.2-1.8,0.5c-0.5,0.3-1,0.8-1.3,1.4c-0.3,0.6-0.5,1.3-0.5,2.1c0,0.8,0.2,1.6,0.5,2.2
				c0.3,0.6,0.8,1.1,1.3,1.4c0.6,0.3,1.2,0.5,1.8,0.5s1.3-0.2,1.8-0.5c0.6-0.3,1-0.8,1.3-1.4c0.3-0.6,0.5-1.3,0.5-2.1
				C333.7,301.3,333.6,300.6,333.3,300"/>
			<path class="st0" d="M347,297.7c0.8,0.8,1.2,1.9,1.2,3.4v6.4h-1.8v-6.1c0-1.1-0.3-1.9-0.8-2.5c-0.5-0.6-1.3-0.9-2.2-0.9
				c-0.9,0-1.7,0.3-2.2,0.9c-0.6,0.6-0.8,1.5-0.8,2.6v6h-1.8v-10.8h1.8v1.5c0.4-0.6,0.8-1,1.5-1.3c0.6-0.3,1.3-0.4,2-0.4
				C345.2,296.5,346.2,296.9,347,297.7"/>
			<path class="st0" d="M351.2,294.6c-0.2-0.2-0.4-0.5-0.4-0.9c0-0.3,0.1-0.6,0.4-0.9c0.2-0.2,0.5-0.4,0.9-0.4
				c0.3,0,0.6,0.1,0.8,0.4c0.2,0.2,0.3,0.5,0.3,0.9c0,0.3-0.1,0.6-0.3,0.9c-0.2,0.2-0.5,0.4-0.8,0.4
				C351.8,295,351.5,294.8,351.2,294.6 M353,307.5h-1.8v-10.8h1.8V307.5z"/>
			<path class="st0" d="M360.9,224.3c4.6,0,8.3,3.7,8.3,8.3c0,4.6-3.7,8.3-8.3,8.3c-4.6,0-8.3-3.7-8.3-8.3
				C352.6,228,356.4,224.3,360.9,224.3 M361,239.6c3.8,0,6.9-3.1,7-6.8c0.1-4.1-3.2-7.2-7-7.2c-4,0-7.1,3.1-7.1,7.1
				C353.9,236.5,357.1,239.6,361,239.6"/>
			<path class="st0" d="M365,236.8c-0.6,0-1.1,0-1.7,0c-0.1,0-0.2-0.1-0.3-0.2c-0.6-0.8-1.2-1.7-1.8-2.5c-0.1-0.1-0.2-0.2-0.3-0.2
				c-0.5,0-1.1,0-1.7,0v2.8h-1.4v-8.4c0.1,0,0.1,0,0.2,0c1.1,0,2.3,0,3.4,0c0.5,0,1.1,0.1,1.6,0.3c0.9,0.3,1.3,0.9,1.5,1.8
				c0.1,0.8,0.1,1.5-0.3,2.2c-0.3,0.5-0.7,0.8-1.2,1c-0.1,0-0.2,0.1-0.3,0.1C363.5,234.8,364.2,235.8,365,236.8 M359.3,232.7
				c0.9,0,1.8,0,2.7-0.2c0.7-0.1,1-0.4,1.1-1.1c0-0.2,0-0.3,0-0.5c0-0.7-0.3-1.2-1.1-1.2c-0.9-0.1-1.8-0.1-2.7-0.1c0,0,0,0,0,0
				V232.7z"/>
		</g>
	</g>
	<path class="st0" d="M478.7,150.3c-3.1,5-4.7,10.1-4.7,15.2c0,5.7,2.1,10.8,6.2,15.5c2.3,2.6,5.1,4.7,8.6,6.2
		c3.4,1.5,7.2,2.2,11.3,2.2c4.1,0,7.8-0.8,11.1-2.3c6.5-3.2,9.8-8.4,9.8-15.6c0-2.7-0.9-5.6-2.7-8.6c-1.8-3-4.6-5.7-8.2-8.1
		l-19.8-13.3c-7.7-4.8-11.5-11-11.5-18.6c0-0.8,0-1.6,0.1-2.3c0.5-6,2.9-10.8,7.2-14.6c4.3-3.8,10.1-5.6,17.3-5.6
		c4.4,0,9.8,0.4,16.1,1.2h7.2l-1.5,17.1h-1c-0.1-4-1.6-7.3-4.7-9.7c-3-2.5-7-3.7-12-3.7c-6,0-10.4,1.8-13.1,5.5c-1.3,1.9-2,3.9-2,6
		c0,2.2,0.7,4,2,5.5c1.3,1.5,3.4,3.2,6.3,5l21.8,14.2c4.4,2.9,7.9,6.2,10.4,10.1c2.9,4.6,4.4,9.3,4.4,14.1c0,3.1-0.6,6.4-1.9,9.8
		c-1.3,3.4-3.4,6.7-6.3,9.6c-2.9,3-6.7,5.4-11.2,7.2c-4.6,1.9-9.6,2.8-15.2,2.8s-10.6-1-15.1-2.9c-8.3-3.5-13.6-9.6-15.8-18.3
		c-0.5-1.9-0.7-3.8-0.7-5.8c0-6.5,2.3-12.7,6.9-18.5L478.7,150.3z"/>
	<path class="st0" d="M606.4,135.3c-2.6,6-7.5,10.2-14.7,12.6c-2.1,0.7-4,1-5.8,1c-5.5,0-10.4-1.4-14.8-4.3v-1.2
		c5.8,0.2,10.5-1.7,14.1-5.7c3.2-3.4,4.8-7.9,4.8-13.4c0-8.4-3-13.9-8.8-16.4c-1.9-0.8-3.9-1.2-6.2-1.2h-7.8v68.1
		c0,2,0.7,3.7,2.2,5.2c1.5,1.4,3.2,2.2,5.2,2.2h1.5v1.2h-35.4v-1.2h1.5c2,0,3.7-0.7,5.2-2.2c1.4-1.4,2.2-3.2,2.3-5.2v-65
		c-0.3-2.6-1.6-4.6-4-5.8c-1.1-0.6-2.3-0.9-3.5-0.9h-1.5v-1.2h38.9c14,0,23,4.5,27,13.4c1.2,3,1.9,6.2,1.9,9.8
		C608.5,128.7,607.8,132.1,606.4,135.3"/>
	<path class="st0" d="M613.3,182.2c2,0,3.7-0.7,5.2-2.2c1.4-1.4,2.2-3.2,2.3-5.2v-64.6c-0.1-2-0.8-3.7-2.3-5.1
		c-1.4-1.4-3.2-2.1-5.2-2.1h-1.5v-1.2h35.4l-0.1,1.2h-1.4c-2,0-3.8,0.7-5.2,2.1c-1.5,1.4-2.2,3.1-2.2,5.1v64.6c0,2,0.7,3.7,2.2,5.2
		c1.5,1.4,3.2,2.2,5.2,2.2h1.4l0.1,1.2h-35.4v-1.2H613.3z"/>
	<path class="st0" d="M697.9,184.9c-15,0-26.7-3.8-35.3-11.3c-8.5-7.5-12.8-17.8-12.8-31s4.2-23.4,12.7-31
		c8.5-7.6,20.1-11.3,34.8-11.3c11.2,0,20.9,2.1,29,6.3l0.2,20h-0.9c-4-14.3-13-21.4-27.1-21.4c-9.2,0-16.4,3.3-21.7,10
		c-5.3,6.6-8,15.7-8,27.2c0,11.5,2.5,20.6,7.6,27.3c5.1,6.7,12,10.2,20.7,10.5c9,0,15.9-2.3,20.6-6.7c4.8-4.7,8.1-12.6,10-24h0.9
		l1.2,20C723.5,179.8,712.9,185,697.9,184.9"/>
	<path class="st0" d="M736.8,182.2c2,0,3.7-0.7,5.2-2.2c1.4-1.4,2.2-3.2,2.3-5.2v-64.8c-0.2-2.7-1.5-4.7-3.8-6.1
		c-1.2-0.6-2.4-0.9-3.6-0.9h-1.5v-1.2h44.6c2.4,0,5-0.2,7.9-0.7c2.9-0.5,4.9-0.9,6-1.4v20.4h-1.2v-1.4c0-3.5-1-6.3-3.1-8.4
		c-2.1-2.1-4.8-3.3-8.3-3.4h-19.5v33.9H777c2.9-0.1,5.2-1.1,7.1-3c1.9-1.9,2.8-4.2,2.8-7v-1h1.2v26.9h-1.2v-0.9
		c0-3.9-1.6-6.7-4.7-8.6c-1.6-0.9-3.3-1.3-5.1-1.4h-15.5v32.7h15.2c5.7,0,10.4-1.6,14.3-4.9c3.8-3.3,6.7-7.9,8.5-13.8h1.2l-5.3,23.7
		h-60.3v-1.2H736.8z"/>
	<path class="st0" d="M555.8,302.2c-6,3-12.5,4.5-19.3,4.5c-6,0-11.6-0.9-16.5-2.8c-10.7-4-19.8-11.7-27.3-23.2
		c-1.9-2.8-5.6-8.1-10.8-16.1c-5.3-7.9-8.7-13-10.2-15.1c-2.7-4.3-4.9-6.6-6.5-7v-1.2h0.3h0.4h0.5h0.6h0.6c4,0,7.6-0.9,10.9-2.7
		c5-2.8,7.6-7.9,7.6-15.5c0-5.5-1.6-9.8-4.7-12.7c-3.1-3-6.8-4.5-11.2-4.5h-8.8v67.8c0,2,0.7,3.7,2.2,5.2c1.5,1.4,3.2,2.2,5.2,2.2
		h1.5v1.2h-35.4v-1.2h1.5c1.9,0,3.6-0.7,5.1-2.1c1.5-1.4,2.2-3.1,2.3-5.1v-64.6c-0.1-2-0.8-3.7-2.3-5.2c-1.4-1.4-3.2-2.2-5.2-2.2
		h-1.5V201h39.9c10,0,17.8,2.3,23.3,6.9c4.3,3.6,6.5,8.6,6.5,15.1c0,6.5-2.1,11.8-6.3,15.9c-4.2,4.1-9.1,6.1-14.5,6.1
		c-0.5,0-1,0-1.5-0.1c3.2,1.7,5.8,3.6,8,5.7c2.1,2.1,4,4.1,5.6,5.9c1.6,1.9,2.9,3.5,4.1,4.9c1.1,1.4,2.6,3.3,4.5,5.7
		c1.9,2.4,3.8,4.8,5.8,7.4c2,2.6,4.2,5.2,6.7,7.9c2.4,2.7,5.2,5.2,8.1,7.6c3,2.4,6,4.4,9.1,5.9c6.6,3.3,13.8,5,21.8,5.1V302.2z"/>
	<path class="st0" d="M560.2,199.3c14.3,0,25.8,3.8,34.2,11.4c8.4,7.6,12.7,17.9,12.7,31c0,13-4.2,23.4-12.7,31
		c-8.5,7.6-19.9,11.4-34.2,11.4c-14.4,0-25.8-3.8-34.2-11.4c-8.5-7.6-12.7-17.9-12.7-31c0-8.6,1.9-16.1,5.8-22.5
		c3.8-6.4,9.3-11.3,16.3-14.7C542.5,201.1,550.7,199.3,560.2,199.3 M539.9,269.1c5,6.7,11.8,10.1,20.3,10.1
		c8.5,0,15.3-3.4,20.3-10.1c5-6.7,7.5-15.8,7.5-27.4c0-7.6-1.1-14.2-3.4-19.9c-2.3-5.7-5.5-10-9.7-13c-4.2-3-9.1-4.5-14.8-4.5
		c-8.5,0-15.3,3.4-20.3,10.1c-5,6.7-7.5,15.8-7.5,27.4S534.9,262.4,539.9,269.1"/>
	<path class="st0" d="M696.8,202.1h-2c-1.6,0-3,0.5-4.2,1.6c-1.2,1-1.8,2.4-1.8,3.9V253c0,9.5-3,17.1-9,22.7
		c-6,5.6-14.2,8.4-24.5,8.4c-12.3,0-21.6-2.7-28.2-8.2c-6.5-5.5-9.8-13.1-9.8-22.7v-45.2c0-1.7-0.6-3.1-1.8-4.2
		c-1.2-1.1-2.7-1.6-4.4-1.6h-1.9V201h33.5v1.2h-1.9c-1.7,0-3.1,0.5-4.3,1.6c-1.2,1-1.8,2.4-1.9,4v44.4c0,8.2,2,14.7,6,19.5
		c4,4.8,9.6,7.2,16.6,7.2c7.1,0,12.6-2.3,16.8-6.8c4.1-4.5,6.2-10.7,6.3-18.4v-46c0-1.6-0.6-3-1.8-4c-1.2-1-2.7-1.6-4.4-1.6h-1.9
		V201h24.3V202.1z"/>
	<path class="st0" d="M743.3,205.7V274c0.1,2,0.8,3.7,2.3,5.1c1.4,1.4,3.2,2.1,5.2,2.1h1.4l0.1,1.2h-35.4v-1.2h1.5
		c1.9,0,3.6-0.7,5.1-2.1c1.4-1.4,2.2-3.1,2.4-5v-68.4h-15.7c-3.6,0.1-6.4,1.2-8.5,3.4c-2.1,2.2-3.1,5-3.1,8.5v1.4h-1.2v-20.2
		c1.1,0.5,3,0.9,5.9,1.4c2.8,0.5,5.4,0.7,7.9,0.7H758c3.8-0.1,6.9-0.4,9.3-0.9c2.4-0.5,3.9-0.9,4.4-1.2V219h-1.2v-1.4
		c0-3.5-1-6.3-3.1-8.5c-2.1-2.2-4.9-3.3-8.5-3.4H743.3z"/>
	<path class="st0" d="M775,281.3c2,0,3.7-0.7,5.2-2.2c1.4-1.4,2.2-3.2,2.3-5.2v-64.8c-0.2-2.7-1.5-4.7-3.8-6.1
		c-1.2-0.6-2.4-0.9-3.6-0.9h-1.5V201H818c2.4,0,5-0.2,7.9-0.7c2.9-0.5,4.9-0.9,6-1.4v20.4h-1.2v-1.4c0-3.5-1-6.3-3.1-8.4
		c-2.1-2.1-4.8-3.3-8.3-3.4h-19.5v33.9h15.4c2.9-0.1,5.2-1.1,7.1-3c1.9-1.9,2.8-4.2,2.8-7v-1h1.2v26.9h-1.2v-0.9
		c0-3.9-1.6-6.7-4.7-8.6c-1.6-0.9-3.3-1.3-5.1-1.4h-15.5v32.7h15.2c5.7,0,10.4-1.6,14.3-4.9c3.8-3.3,6.7-7.9,8.5-13.8h1.2l-5.3,23.7
		h-60.3v-1.2H775z"/>
	<path class="st0" d="M567.1,298.1v3.9h1.8c0.3,0,0.6-0.1,0.8-0.3s0.3-0.5,0.3-0.8v-0.1h0.1v3.1H570v-0.1c0-0.3-0.1-0.6-0.3-0.8
		s-0.5-0.3-0.8-0.3h-1.8v3.4c0,0.3,0.1,0.6,0.4,0.7c0.1,0.1,0.3,0.1,0.4,0.1h0.2l0,0.1H564v-0.1h0.2c0.2,0,0.4-0.1,0.6-0.2
		c0.2-0.2,0.2-0.4,0.3-0.6v-7.5c0-0.2-0.1-0.4-0.3-0.6c-0.2-0.2-0.4-0.2-0.6-0.2H564v-0.1h5.1c0.4,0,0.8,0,1.1-0.1
		c0.3-0.1,0.5-0.1,0.5-0.1v2.3h-0.1v-0.1c0-0.4-0.1-0.7-0.3-0.9c-0.2-0.2-0.5-0.4-0.9-0.4H567.1z"/>
	<path class="st0" d="M582.7,298.1h-0.6h0v7.8c0,0.3,0.2,0.6,0.4,0.7c0.1,0.1,0.3,0.1,0.4,0.1h0.2v0.1H579v-0.1h0.2
		c0.3,0,0.6-0.1,0.7-0.4c0.1-0.1,0.1-0.3,0.1-0.4v-7.4c0-0.2-0.1-0.4-0.3-0.6s-0.4-0.2-0.6-0.2H579v-0.1h4.6c0.9,0,1.6,0.2,2.2,0.6
		c0.3,0.2,0.5,0.4,0.7,0.8c0.2,0.3,0.3,0.7,0.3,1.1c0,0.4-0.1,0.8-0.2,1.2c-0.1,0.4-0.4,0.7-0.7,0.9c-0.3,0.3-0.8,0.4-1.2,0.5
		c0.5,0.2,1,0.6,1.4,1.2c1,1.5,1.7,2.5,2.1,2.8c0.2,0.1,0.5,0.2,0.9,0.2v0.1h-1.3c-0.8,0-1.4-0.1-1.9-0.3c-0.5-0.2-0.9-0.6-1.2-1.1
		c-0.2-0.3-0.4-0.7-0.6-1.2c-0.2-0.5-0.4-0.9-0.5-1.1c-0.2-0.5-0.5-0.8-0.9-0.9v-0.1h0.4c0.4,0,0.8-0.1,1.1-0.4
		c0.3-0.2,0.5-0.6,0.6-1.2c0-0.2,0-0.3,0-0.4c0-0.7-0.1-1.3-0.4-1.6c-0.3-0.3-0.7-0.5-1.1-0.5H582.7z"/>
	<path class="st0" d="M600.8,297.3c1.7,0,3,0.4,3.9,1.3c1,0.9,1.5,2.1,1.5,3.6c0,1.5-0.5,2.7-1.5,3.6c-1,0.9-2.3,1.3-3.9,1.3
		c-1.7,0-3-0.4-3.9-1.3c-1-0.9-1.5-2.1-1.5-3.6c0-1,0.2-1.9,0.7-2.6c0.4-0.7,1.1-1.3,1.9-1.7C598.8,297.5,599.8,297.3,600.8,297.3
		 M598.5,305.3c0.6,0.8,1.4,1.2,2.3,1.2s1.8-0.4,2.3-1.2c0.6-0.8,0.9-1.8,0.9-3.2c0-0.9-0.1-1.6-0.4-2.3c-0.3-0.7-0.6-1.1-1.1-1.5
		c-0.5-0.3-1-0.5-1.7-0.5c-1,0-1.8,0.4-2.3,1.2c-0.6,0.8-0.9,1.8-0.9,3.2C597.6,303.5,597.9,304.6,598.5,305.3"/>
	<path class="st0" d="M626.3,306.7h0.2v0.1h-4v-0.1h0.2c0.2,0,0.3-0.1,0.4-0.2c0.1-0.1,0.2-0.3,0.1-0.4l-0.5-4.9l-2.5,4.3
		c-0.3,0.6-0.5,1-0.5,1.5h-0.1l-3.4-5.8l-0.5,4.8c0,0.1,0,0.3,0.1,0.4c0.1,0.1,0.2,0.2,0.4,0.2h0.2v0.1h-2.8v-0.1h0.2
		c0.3,0,0.5-0.1,0.7-0.2c0.2-0.1,0.3-0.4,0.3-0.6l1.1-8.6h0.1l4.2,6.8l4-6.8h0.1l1.1,8.6c0,0.3,0.2,0.5,0.3,0.6
		C625.8,306.7,626,306.7,626.3,306.7"/>
	<path class="st0" d="M651.2,299.8c0,0.4-0.1,0.8-0.3,1.1c-0.2,0.3-0.5,0.6-0.8,0.7c1,0.1,1.8,0.5,2.3,1.2c0.2,0.4,0.4,0.9,0.4,1.4
		s-0.2,1.1-0.6,1.5c-0.4,0.5-1,0.8-1.7,1c-0.7,0.2-1.4,0.3-2.1,0.3c-1.8,0-3.2-0.5-4-1.5c-0.5-0.6-0.8-1.5-0.8-2.5
		c0-0.2,0-0.4,0-0.5l0.1,0c0.1,1.5,0.6,2.6,1.7,3.3v-7.4c0-0.3-0.2-0.6-0.4-0.7c-0.1-0.1-0.3-0.1-0.4-0.1h-0.2v-0.1h3.4
		c1,0,1.8,0.2,2.5,0.6C650.9,298.5,651.2,299.1,651.2,299.8 M647.7,306.4c0.8,0,1.5-0.2,1.9-0.7c0.5-0.4,0.7-1,0.7-1.7
		c0-0.4-0.1-0.8-0.2-1.1c-0.2-0.3-0.4-0.5-0.6-0.7c-0.5-0.3-1.1-0.4-1.7-0.4v-0.1c0.3,0,0.5-0.1,0.7-0.3c0.3-0.4,0.5-0.8,0.5-1.5
		c0-0.6-0.1-1.1-0.4-1.4c-0.3-0.3-0.7-0.4-1.3-0.5v8.4C647.5,306.4,647.6,306.4,647.7,306.4"/>
	<path class="st0" d="M660.5,306.7c0.2,0,0.4-0.1,0.6-0.2c0.2-0.2,0.3-0.4,0.3-0.6v-7.4c0-0.2-0.1-0.4-0.3-0.6
		c-0.2-0.2-0.4-0.2-0.6-0.2h-0.2v-0.1h4.1l0,0.1h-0.2c-0.2,0-0.4,0.1-0.6,0.2c-0.2,0.2-0.3,0.4-0.3,0.6v7.4c0,0.2,0.1,0.4,0.3,0.6
		c0.2,0.2,0.4,0.2,0.6,0.2h0.2l0,0.1h-4.1v-0.1H660.5z"/>
	<path class="st0" d="M676.2,298.1h-0.6h0v7.8c0,0.3,0.2,0.6,0.4,0.7c0.1,0.1,0.3,0.1,0.4,0.1h0.2v0.1h-4.1v-0.1h0.2
		c0.3,0,0.6-0.1,0.7-0.4c0.1-0.1,0.1-0.3,0.1-0.4v-7.4c0-0.2-0.1-0.4-0.3-0.6c-0.2-0.2-0.4-0.2-0.6-0.2h-0.2v-0.1h4.6
		c0.9,0,1.6,0.2,2.2,0.6c0.3,0.2,0.5,0.4,0.7,0.8c0.2,0.3,0.3,0.7,0.3,1.1c0,0.4-0.1,0.8-0.2,1.2c-0.1,0.4-0.4,0.7-0.7,0.9
		c-0.3,0.3-0.8,0.4-1.2,0.5c0.5,0.2,1,0.6,1.4,1.2c1,1.5,1.7,2.5,2.1,2.8c0.2,0.1,0.5,0.2,0.9,0.2v0.1h-1.3c-0.8,0-1.4-0.1-1.9-0.3
		c-0.5-0.2-0.9-0.6-1.2-1.1c-0.2-0.3-0.4-0.7-0.6-1.2c-0.2-0.5-0.4-0.9-0.5-1.1c-0.2-0.5-0.5-0.8-0.9-0.9v-0.1h0.4
		c0.4,0,0.8-0.1,1.1-0.4c0.3-0.2,0.5-0.6,0.6-1.2c0-0.2,0-0.3,0-0.4c0-0.7-0.1-1.3-0.4-1.6c-0.3-0.3-0.7-0.5-1.1-0.5H676.2z"/>
	<path class="st0" d="M689.4,306.7c0.2,0,0.4-0.1,0.6-0.2c0.2-0.2,0.3-0.4,0.3-0.6v-7.4c0-0.2-0.1-0.4-0.3-0.6
		c-0.2-0.2-0.4-0.2-0.6-0.2h-0.2v-0.1h4.1l0,0.1h-0.2c-0.2,0-0.4,0.1-0.6,0.2c-0.2,0.2-0.3,0.4-0.3,0.6v7.4c0,0.2,0.1,0.4,0.3,0.6
		c0.2,0.2,0.4,0.2,0.6,0.2h0.2l0,0.1h-4.1v-0.1H689.4z"/>
	<path class="st0" d="M710.7,297.6h-0.2c-0.3,0-0.5,0.1-0.8,0.2c-0.2,0.1-0.4,0.3-0.6,0.5l-2.6,4.2v3.3c0,0.2,0.1,0.4,0.3,0.6
		c0.2,0.2,0.4,0.2,0.6,0.2h0.2l0,0.1h-4.1v-0.1h0.2c0.2,0,0.4-0.1,0.6-0.2c0.2-0.2,0.3-0.4,0.3-0.6v-3.3l-2.6-4.2
		c-0.1-0.2-0.3-0.4-0.6-0.5c-0.2-0.1-0.5-0.2-0.8-0.2h-0.2v-0.1h4.4v0.1h-0.2c-0.2,0-0.4,0.1-0.5,0.3c0,0.1-0.1,0.2-0.1,0.3
		c0,0.1,0,0.2,0.1,0.3l1.9,3.5l2-3.5c0.1-0.1,0.1-0.2,0.1-0.3c0-0.1,0-0.2-0.1-0.3c-0.1-0.2-0.3-0.3-0.5-0.3h-0.2v-0.1h3.2V297.6z"
		/>
	<path class="st0" d="M725.7,306.7h0.1v0.1h-4.3v-0.1h0.1c0.2,0,0.3-0.1,0.4-0.2c0.1-0.1,0.1-0.2,0.1-0.3s0-0.2-0.1-0.3l-0.7-1.6
		h-3.1l-0.7,1.6c0,0.1-0.1,0.2-0.1,0.3c0,0.1,0,0.2,0.1,0.3c0.1,0.1,0.2,0.2,0.4,0.2h0.1v0.1h-2.9v-0.1h0.1c0.2,0,0.4-0.1,0.6-0.2
		c0.2-0.1,0.4-0.3,0.5-0.6l3.1-7c0.4-0.9,0.6-1.5,0.7-1.7h0.1l4,8.7c0.1,0.3,0.3,0.5,0.5,0.6C725.2,306.7,725.5,306.7,725.7,306.7
		 M718.6,303.7h2.7l-1.3-3.3L718.6,303.7z"/>
	<path class="st0" d="M743.3,297.6c-0.2,0-0.4,0.1-0.6,0.2c-0.2,0.2-0.2,0.3-0.3,0.6v6.9c0,0.6,0,1.1,0.1,1.5l0,0.2h-0.1l-6.8-6.4
		v5.3c0,0.2,0.1,0.4,0.2,0.6c0.2,0.2,0.4,0.2,0.6,0.2h0.2v0.1h-4.1v-0.1h0.2c0.2,0,0.4-0.1,0.6-0.2c0.2-0.2,0.2-0.3,0.2-0.6v-7
		c0-0.6,0-1.1-0.1-1.5l0-0.2h0.1l6.8,6.4v-5.3c0-0.2-0.1-0.4-0.3-0.6c-0.2-0.1-0.4-0.2-0.6-0.2h-0.2v-0.1h4.1v0.1H743.3z"/>
	<path class="st0" d="M751.4,306.7c0.2,0,0.4-0.1,0.6-0.2c0.2-0.2,0.3-0.4,0.3-0.6v-7.4c0-0.2-0.1-0.4-0.3-0.6
		c-0.2-0.2-0.4-0.2-0.6-0.2h-0.2v-0.1h4.1l0,0.1h-0.2c-0.2,0-0.4,0.1-0.6,0.2c-0.2,0.2-0.3,0.4-0.3,0.6v7.4c0,0.2,0.1,0.4,0.3,0.6
		c0.2,0.2,0.4,0.2,0.6,0.2h0.2l0,0.1h-4.1v-0.1H751.4z"/>
	<path class="st0" d="M774.4,303.1c-0.4,0.6-0.5,1.2-0.5,1.8c0,0.7,0.2,1.2,0.7,1.8c0.3,0.3,0.6,0.5,1,0.7c0.4,0.2,0.8,0.2,1.3,0.2
		c0.5,0,0.9-0.1,1.3-0.3c0.8-0.4,1.1-1,1.1-1.8c0-0.3-0.1-0.6-0.3-1c-0.2-0.3-0.5-0.7-0.9-0.9l-2.3-1.5c-0.9-0.6-1.3-1.3-1.3-2.1
		c0-0.1,0-0.2,0-0.3c0-0.7,0.3-1.3,0.8-1.7c0.5-0.4,1.2-0.7,2-0.7c0.5,0,1.1,0,1.8,0.1h0.8l-0.2,2h-0.1c0-0.5-0.2-0.8-0.5-1.1
		c-0.3-0.3-0.8-0.4-1.4-0.4c-0.7,0-1.2,0.2-1.5,0.6c-0.2,0.2-0.2,0.4-0.2,0.7c0,0.2,0.1,0.5,0.2,0.6c0.1,0.2,0.4,0.4,0.7,0.6
		l2.5,1.6c0.5,0.3,0.9,0.7,1.2,1.2c0.3,0.5,0.5,1.1,0.5,1.6c0,0.4-0.1,0.7-0.2,1.1c-0.1,0.4-0.4,0.8-0.7,1.1
		c-0.3,0.3-0.8,0.6-1.3,0.8c-0.5,0.2-1.1,0.3-1.7,0.3c-0.6,0-1.2-0.1-1.7-0.3c-1-0.4-1.6-1.1-1.8-2.1c0-0.2-0.1-0.4-0.1-0.7
		c0-0.8,0.3-1.5,0.8-2.1L774.4,303.1z"/>
	<path class="st0" d="M794.3,297.3c1.7,0,3,0.4,3.9,1.3c1,0.9,1.5,2.1,1.5,3.6c0,1.5-0.5,2.7-1.5,3.6c-1,0.9-2.3,1.3-3.9,1.3
		c-1.7,0-3-0.4-3.9-1.3c-1-0.9-1.5-2.1-1.5-3.6c0-1,0.2-1.9,0.7-2.6c0.4-0.7,1.1-1.3,1.9-1.7C792.3,297.5,793.2,297.3,794.3,297.3
		 M792,305.3c0.6,0.8,1.4,1.2,2.3,1.2s1.8-0.4,2.3-1.2c0.6-0.8,0.9-1.8,0.9-3.2c0-0.9-0.1-1.6-0.4-2.3c-0.3-0.7-0.6-1.1-1.1-1.5
		c-0.5-0.3-1-0.5-1.7-0.5c-1,0-1.8,0.4-2.3,1.2c-0.6,0.8-0.9,1.8-0.9,3.2C791.1,303.5,791.4,304.6,792,305.3"/>
	<path class="st0" d="M817.5,297.6h-0.2c-0.2,0-0.3,0.1-0.5,0.2c-0.1,0.1-0.2,0.3-0.2,0.4v5.2c0,1.1-0.3,2-1,2.6
		c-0.7,0.6-1.6,1-2.8,1c-1.4,0-2.5-0.3-3.2-0.9c-0.8-0.6-1.1-1.5-1.1-2.6v-5.2c0-0.2-0.1-0.4-0.2-0.5c-0.1-0.1-0.3-0.2-0.5-0.2h-0.2
		v-0.1h3.9v0.1h-0.2c-0.2,0-0.4,0.1-0.5,0.2c-0.1,0.1-0.2,0.3-0.2,0.5v5.1c0,0.9,0.2,1.7,0.7,2.3c0.5,0.6,1.1,0.8,1.9,0.8
		c0.8,0,1.5-0.3,1.9-0.8c0.5-0.5,0.7-1.2,0.7-2.1v-5.3c0-0.2-0.1-0.3-0.2-0.5c-0.1-0.1-0.3-0.2-0.5-0.2h-0.2v-0.1h2.8V297.6z"/>
	<path class="st0" d="M825.5,306.7c0.2,0,0.4-0.1,0.6-0.2c0.2-0.2,0.3-0.4,0.3-0.6v-7.4c0-0.3-0.2-0.6-0.4-0.7
		c-0.1-0.1-0.3-0.1-0.4-0.1h-0.2v-0.1h4.1l0,0.1h-0.2c-0.3,0-0.6,0.1-0.7,0.4c-0.1,0.1-0.1,0.3-0.1,0.4v7.4c0,0.2,0.1,0.4,0.2,0.6
		c0.2,0.2,0.4,0.2,0.6,0.2h0.2l0,0.1h-4.1v-0.1H825.5z M835.2,306.9h-1.1c-1.4,0-2.3-0.4-2.9-1.1c-1.6-2.2-2.4-3.3-2.4-3.3l3.2-4.2
		c0.1-0.1,0.1-0.2,0.1-0.2c0-0.1,0-0.1,0-0.2c-0.1-0.1-0.2-0.2-0.4-0.2h-0.1v-0.1h3.1v0.1h0c-0.6,0-1.1,0.2-1.5,0.6l-2.6,3.1
		l3.3,4.6c0.4,0.5,0.9,0.8,1.4,0.8V306.9z"/>
	<path class="st0" d="M670.2,71.8c-1,2.3-2.8,3.2-5.3,3c-4.4-0.4-8.9-0.5-13.3-1.1c-3.6-0.5-6.8-2.1-9.5-4.7
		c0.1,1.8,0.3,3.5,0.2,5.1c-0.3,5.5-2.7,10.3-5.3,15c-0.7,1.3-1.5,2.6-2.3,3.9c-1.7,2.5-5.1,2.6-6.7,0c-3.4-5.3-6.5-10.9-7.5-17.2
		c-0.3-1.7-0.1-3.4-0.1-5.1c0-0.5,0.1-0.9,0.2-1.8c-2.8,2.6-5.9,4-9.3,4.8c-5.1,1.2-10.2,1.3-15.4,1c-2.7-0.1-4.4-3.2-3.1-5.7
		c2.6-5.2,5.6-10.1,9.9-14c2-1.8,4.6-3.1,6.8-4.6c-5.7-1.7-9.3-6.3-12.6-11.2c-1.4-2.2-2.8-4.4-4-6.7c-1.4-2.8,0.2-5.9,3.4-6
		c5.7-0.3,11.5-0.2,16.9,1.7c2.5,0.9,4.9,2.3,7.3,3.5c0-2.1-0.3-4.5,0.1-6.9c1.1-6.2,4.1-11.7,7.5-16.9c1.4-2.1,4.8-2.2,6.2,0
		c3.8,5.7,7.1,11.7,7.8,18.6c0.2,1.8,0,3.6,0,5.4c-0.1,0,0.1,0,0.2-0.1c3.9-3.5,8.7-4.6,13.7-5.1c2.7-0.3,5.5-0.2,8.3-0.4
		c2.6-0.2,4.6,0.6,5.8,3v2.4c-1.3,2.2-2.6,4.5-4,6.6c-3.4,5.2-7.2,10.1-13.9,12.2c5.5,1.6,9,5.2,11.9,9.4c2.1,3.1,4,6.4,5.9,9.6
		V71.8z M626.6,37.3c-0.5,0.6-1.2,1.2-1.6,2c-0.9,2.1-2.2,3.5-4.3,4.3c-1.8,0.6-2.1,1.5-1.4,3.2c0.9,2.1,0.9,4.1,0,6.2
		c-0.7,1.6-0.3,2.6,1.3,3.2c2.2,0.8,3.6,2.2,4.4,4.4c0.6,1.7,1.6,2.1,3.3,1.3c2-0.9,4-1,6.1,0c1.7,0.8,2.7,0.4,3.3-1.3
		c0.8-2.2,2.2-3.6,4.4-4.4c1.7-0.6,2.1-1.6,1.4-3.1c-1-2.1-1-4.1-0.1-6.2c0.8-1.8,0.4-2.6-1.5-3.3c-2-0.8-3.4-2.1-4.1-4.1
		c-0.8-2-1.6-2.4-3.5-1.5c-1.9,0.8-3.9,0.8-5.8,0C627.9,37.7,627.4,37.6,626.6,37.3 M660.1,70.6c0-0.2,0.1-0.4,0.1-0.6
		c-2.1-1.2-4.1-2.4-6.2-3.6c-3.3-1.9-6.5-3.7-9.7-5.6c-0.9-0.5-1.5-0.1-1.9,0.5c-0.2,0.4-0.3,1.2-0.1,1.5c2.3,2.6,4.7,5.1,8.1,5.9
		C653.6,69.5,656.9,70,660.1,70.6 M602,70.3c1.5-0.1,2.5-0.2,3.5-0.3c5.7-0.3,10.7-2.2,14.5-6.8c0.6-0.7,0.8-1.3,0.2-2
		c-0.6-0.7-1.2-0.9-2.1-0.3c-5,2.9-10,5.8-15,8.7C602.9,69.7,602.6,69.9,602,70.3 M633.6,85.2c3.3-5.8,5.7-11.7,2.7-18.5h-2.7V85.2z
		 M628.9,85.5V66.6c-1,0.1-1.9,0.1-2.8,0.2C623.9,73.2,624.8,79.1,628.9,85.5 M620.3,38.5c-4.1-5.2-12-8.3-17.7-7.1
		c0.5,0.3,0.9,0.6,1.3,0.8c3.8,2.2,7.8,4.3,11.5,6.7C617.3,40.2,618.6,39.6,620.3,38.5 M642.5,38.4c1.7,1.5,2.6,1.6,4.3,0.6
		c4-2.3,8-4.6,12-7c0.4-0.2,0.8-0.5,1.1-0.8C653.2,31.3,646.9,32.4,642.5,38.4 M614.2,54.4c-5.9,1.2-12.5,6.6-14,11.6
		c5.1-2.9,10-5.8,14.9-8.6C614.7,56.3,614.5,55.4,614.2,54.4 M662.4,66c-3.3-5.6-7-10.7-14.1-11.6c-0.3,1-0.5,2-0.8,3
		C652.5,60.3,657.5,63.1,662.4,66 M662.4,35.4c-4.5,2.6-9.1,5.2-13.6,7.9c-0.3,0.2-0.6,0.6-0.6,0.9c0,0.9,0.1,1.9,0.1,2.8
		C655.4,46,659.1,41,662.4,35.4 M633.6,33h3.3c2.1-6.3-0.4-11.6-3.3-16.9V33z M614.3,46.9c0-0.7-0.2-1.4,0-1.9
		c0.4-1.1-0.1-1.6-1-2.1c-4-2.3-8-4.6-12.1-6.9c-0.4-0.2-0.7-0.4-1.1-0.5C603.5,41,607.3,46,614.3,46.9 M628.9,33V16.1
		c-2.8,5.3-5.5,10.6-3.2,16.9H628.9z"/>
</g>
</svg>
